<svg width="150" height="63" viewBox="0 0 150 63" fill="none" xmlns="http://www.w3.org/2000/svg">
<rect width="150" height="63" rx="10" fill="#019A5A"/>
<path d="M25.22 24.92C25.46 24.84 26.1133 24.7533 27.18 24.66C28.2467 24.5533 29.2133 24.5 30.08 24.5C30.96 24.5 31.64 24.54 32.12 24.62C32.1333 24.6733 32.14 24.74 32.14 24.82C32.14 24.8867 32.1 25.0533 32.02 25.32C31.9533 25.5867 31.9 25.76 31.86 25.84C31.7533 25.9467 31.4533 26.0267 30.96 26.08L34.78 37.14L36.68 37.3C36.68 37.6733 36.5667 38.0733 36.34 38.5H31.74L31.68 37.8C31.9867 37.64 32.4333 37.5 33.02 37.38L32 34.52H26.42L25.48 37.14L27.1 37.3C27.1 37.6733 26.9867 38.0733 26.76 38.5H22.16L22.1 37.8C22.62 37.6133 23.1733 37.4667 23.76 37.36L27.64 26.02C26.4533 25.8867 25.62 25.7267 25.14 25.54L25.22 24.92ZM30.42 30.06L29.36 26.14C29.28 26.1267 29.1667 26.12 29.02 26.12L27.94 30.2L26.78 33.24H31.64L30.42 30.06ZM40.6452 37.48L40.5452 41.76L42.2852 41.9C42.2852 42.2733 42.1718 42.6733 41.9452 43.1H37.3052L37.2452 42.4C37.8585 42.2 38.4585 42.0467 39.0452 41.94C38.9652 36.5 38.8985 32.4533 38.8452 29.8C38.2452 29.7867 37.6585 29.7067 37.0852 29.56L37.1652 28.52C37.9385 28.32 39.0185 28.22 40.4052 28.22C40.5252 28.4333 40.6385 28.8267 40.7452 29.4C42.4518 28.5333 43.5318 28.1 43.9852 28.1C45.2252 28.1 46.1452 28.5867 46.7452 29.56C47.3452 30.52 47.6452 31.7733 47.6452 33.32C47.6452 34.8533 47.3052 36.14 46.6252 37.18C45.9585 38.22 44.9852 38.74 43.7052 38.74C43.2252 38.74 42.6985 38.62 42.1252 38.38C41.5652 38.14 41.0718 37.84 40.6452 37.48ZM43.6252 29.6C42.7985 29.6 41.8385 29.8933 40.7452 30.48C40.7185 32.96 40.6918 34.82 40.6652 36.06C40.9985 36.3933 41.4385 36.7 41.9852 36.98C42.5452 37.2467 43.0318 37.38 43.4452 37.38C45.0185 37.38 45.8052 36.0867 45.8052 33.5C45.8052 32.5133 45.6918 31.74 45.4652 31.18C45.2385 30.6067 44.9785 30.2 44.6852 29.96C44.3918 29.72 44.0385 29.6 43.6252 29.6ZM52.2272 37.48L52.1272 41.76L53.8672 41.9C53.8672 42.2733 53.7539 42.6733 53.5272 43.1H48.8872L48.8272 42.4C49.4405 42.2 50.0405 42.0467 50.6272 41.94C50.5472 36.5 50.4805 32.4533 50.4272 29.8C49.8272 29.7867 49.2405 29.7067 48.6672 29.56L48.7472 28.52C49.5205 28.32 50.6005 28.22 51.9872 28.22C52.1072 28.4333 52.2205 28.8267 52.3272 29.4C54.0339 28.5333 55.1139 28.1 55.5672 28.1C56.8072 28.1 57.7272 28.5867 58.3272 29.56C58.9272 30.52 59.2272 31.7733 59.2272 33.32C59.2272 34.8533 58.8872 36.14 58.2072 37.18C57.5405 38.22 56.5672 38.74 55.2872 38.74C54.8072 38.74 54.2805 38.62 53.7072 38.38C53.1472 38.14 52.6539 37.84 52.2272 37.48ZM55.2072 29.6C54.3805 29.6 53.4205 29.8933 52.3272 30.48C52.3005 32.96 52.2739 34.82 52.2472 36.06C52.5805 36.3933 53.0205 36.7 53.5672 36.98C54.1272 37.2467 54.6139 37.38 55.0272 37.38C56.6005 37.38 57.3872 36.0867 57.3872 33.5C57.3872 32.5133 57.2739 31.74 57.0472 31.18C56.8205 30.6067 56.5605 30.2 56.2672 29.96C55.9739 29.72 55.6205 29.6 55.2072 29.6ZM65.7492 37.38C66.3359 37.38 67.2559 37.1 68.5092 36.54C68.7626 36.8867 68.8959 37.1933 68.9092 37.46C68.2292 37.86 67.5626 38.1733 66.9092 38.4C66.2559 38.6267 65.7892 38.74 65.5092 38.74C63.9626 38.74 62.7826 38.28 61.9692 37.36C61.1559 36.4267 60.7492 35.1267 60.7492 33.46C60.7492 31.7933 61.1426 30.4867 61.9292 29.54C62.7292 28.58 63.9226 28.1 65.5092 28.1C66.7359 28.1 67.6692 28.54 68.3092 29.42C68.9626 30.3 69.2892 31.48 69.2892 32.96C69.1826 33.1467 69.0959 33.2733 69.0292 33.34L62.5892 33.24C62.6026 34.5867 62.8359 35.6133 63.2892 36.32C63.7559 37.0267 64.5759 37.38 65.7492 37.38ZM67.4692 32.1C67.4692 31.22 67.3092 30.54 66.9892 30.06C66.6692 29.5667 66.1359 29.32 65.3892 29.32C64.6426 29.32 63.9759 29.46 63.3892 29.74C62.9892 30.54 62.7359 31.36 62.6292 32.2C63.6826 32.1867 65.2959 32.1533 67.4692 32.1ZM77.1436 28.1C78.4236 28.1 79.3503 28.42 79.9236 29.06C80.4969 29.6867 80.7836 30.6467 80.7836 31.94C80.7836 32.3133 80.7303 34.0467 80.6236 37.14L82.3036 37.3C82.3036 37.6733 82.1903 38.0733 81.9636 38.5H77.3636L77.3036 37.8C77.9169 37.5867 78.5169 37.4267 79.1036 37.32C79.0236 33.8267 78.9503 31.8867 78.8836 31.5C78.8303 31.1 78.7369 30.7533 78.6036 30.46C78.4703 30.1667 78.2703 29.96 78.0036 29.84C77.7369 29.72 77.3836 29.66 76.9436 29.66C76.0636 29.66 75.2103 29.8733 74.3836 30.3C74.3036 33.34 74.2503 35.62 74.2236 37.14L75.9036 37.3C75.9036 37.6733 75.7903 38.0733 75.5636 38.5H70.9636L70.9036 37.8C71.5169 37.5867 72.1169 37.4267 72.7036 37.32C72.6236 33.9333 72.5569 31.4267 72.5036 29.8C71.7703 29.76 71.1836 29.68 70.7436 29.56L70.8236 28.52C71.5436 28.32 72.5903 28.22 73.9636 28.22C74.1236 28.46 74.2436 28.8067 74.3236 29.26C74.8969 28.9533 75.4703 28.6867 76.0436 28.46C76.6303 28.22 76.9969 28.1 77.1436 28.1ZM90.1078 29.24L90.0478 25.24C89.3145 25.2 88.7278 25.12 88.2878 25L88.3678 23.96C89.0478 23.76 90.0345 23.66 91.3278 23.66C91.7411 23.66 92.0345 23.6733 92.2078 23.7C92.2078 23.94 92.1678 24.26 92.0878 24.66C92.0211 25.0467 91.9745 25.26 91.9478 25.3L91.7678 37.12C92.3145 37.1467 92.8945 37.24 93.5078 37.4L93.4678 38.1C92.5478 38.5267 91.7345 38.74 91.0278 38.74C90.8811 38.74 90.7678 38.7333 90.6878 38.72C90.5811 38.52 90.4478 38.06 90.2878 37.34C88.7545 38.2067 87.6811 38.6733 87.0678 38.74C85.7878 38.74 84.8278 38.2533 84.1878 37.28C83.5478 36.3067 83.2278 35.06 83.2278 33.54C83.2278 32.0067 83.5478 30.72 84.1878 29.68C84.8411 28.6267 85.8011 28.1 87.0678 28.1C88.0545 28.1 89.0678 28.48 90.1078 29.24ZM87.4078 29.46C85.8478 29.46 85.0678 30.74 85.0678 33.3C85.0678 34.3 85.2278 35.1667 85.5478 35.9C85.7078 36.3 85.9411 36.62 86.2478 36.86C86.5678 37.1 86.9345 37.22 87.3478 37.22C87.7611 37.22 88.2411 37.1267 88.7878 36.94C89.3478 36.7533 89.8278 36.54 90.2278 36.3L90.1078 30.6C89.7478 30.2933 89.3078 30.0267 88.7878 29.8C88.2678 29.5733 87.8078 29.46 87.4078 29.46Z" fill="white"/>
<path d="M121 43.1667C127.443 43.1667 132.667 37.9434 132.667 31.5C132.667 25.0567 127.443 19.8334 121 19.8334C114.557 19.8334 109.333 25.0567 109.333 31.5C109.333 37.9434 114.557 43.1667 121 43.1667Z" stroke="white" stroke-width="2" stroke-linejoin="round"/>
<path d="M121 26.8334V36.1667" stroke="white" stroke-width="2" stroke-linecap="round" stroke-linejoin="round"/>
<path d="M116.333 31.5H125.667" stroke="white" stroke-width="2" stroke-linecap="round" stroke-linejoin="round"/>
</svg>
