<svg width="177" height="63" viewBox="0 0 177 63" fill="none" xmlns="http://www.w3.org/2000/svg">
<rect width="177" height="63" rx="10" fill="#019A5A"/>
<path d="M24.78 38.76C22.9933 38.76 21.5667 38.1467 20.5 36.92C19.4333 35.6933 18.9 33.88 18.9 31.48C18.9 29.0667 19.36 27.26 20.28 26.06C21.2133 24.8467 22.66 24.24 24.62 24.24C26.5933 24.24 28.2533 24.7333 29.6 25.72C29.6 26.4 29.5067 27.2067 29.32 28.14C29.0267 28.1933 28.64 28.22 28.16 28.22L27.72 26.16C26.96 25.9067 26.0267 25.78 24.92 25.78C24.1867 25.78 23.18 25.98 21.9 26.38C21.82 26.5267 21.72 26.7333 21.6 27C21.48 27.2533 21.32 27.8 21.12 28.64C20.9333 29.4667 20.84 30.3 20.84 31.14C20.84 35.2333 22.1667 37.28 24.82 37.28C26.22 37.28 27.3 37.0267 28.06 36.52C28.1133 34.84 28.1467 33.58 28.16 32.74L26.22 32.26L26.28 31.56H30.88C31.1067 31.9867 31.22 32.3867 31.22 32.76C30.7 32.84 30.14 32.8933 29.54 32.92C29.62 35.16 29.66 36.7067 29.66 37.56C29.3267 37.7867 28.66 38.0467 27.66 38.34C26.6733 38.62 25.7133 38.76 24.78 38.76ZM37.4055 37.38C37.9921 37.38 38.9121 37.1 40.1655 36.54C40.4188 36.8867 40.5521 37.1933 40.5655 37.46C39.8855 37.86 39.2188 38.1733 38.5655 38.4C37.9121 38.6267 37.4455 38.74 37.1655 38.74C35.6188 38.74 34.4388 38.28 33.6255 37.36C32.8121 36.4267 32.4055 35.1267 32.4055 33.46C32.4055 31.7933 32.7988 30.4867 33.5855 29.54C34.3855 28.58 35.5788 28.1 37.1655 28.1C38.3921 28.1 39.3255 28.54 39.9655 29.42C40.6188 30.3 40.9455 31.48 40.9455 32.96C40.8388 33.1467 40.7521 33.2733 40.6855 33.34L34.2455 33.24C34.2588 34.5867 34.4921 35.6133 34.9455 36.32C35.4121 37.0267 36.2321 37.38 37.4055 37.38ZM39.1255 32.1C39.1255 31.22 38.9655 30.54 38.6455 30.06C38.3255 29.5667 37.7921 29.32 37.0455 29.32C36.2988 29.32 35.6321 29.46 35.0455 29.74C34.6455 30.54 34.3921 31.36 34.2855 32.2C35.3388 32.1867 36.9521 32.1533 39.1255 32.1ZM48.7998 28.1C50.0798 28.1 51.0065 28.42 51.5798 29.06C52.1532 29.6867 52.4398 30.6467 52.4398 31.94C52.4398 32.3133 52.3865 34.0467 52.2798 37.14L53.9598 37.3C53.9598 37.6733 53.8465 38.0733 53.6198 38.5H49.0198L48.9598 37.8C49.5732 37.5867 50.1732 37.4267 50.7598 37.32C50.6798 33.8267 50.6065 31.8867 50.5398 31.5C50.4865 31.1 50.3932 30.7533 50.2598 30.46C50.1265 30.1667 49.9265 29.96 49.6598 29.84C49.3932 29.72 49.0398 29.66 48.5998 29.66C47.7198 29.66 46.8665 29.8733 46.0398 30.3C45.9598 33.34 45.9065 35.62 45.8798 37.14L47.5598 37.3C47.5598 37.6733 47.4465 38.0733 47.2198 38.5H42.6198L42.5598 37.8C43.1732 37.5867 43.7732 37.4267 44.3598 37.32C44.2798 33.9333 44.2132 31.4267 44.1598 29.8C43.4265 29.76 42.8398 29.68 42.3998 29.56L42.4798 28.52C43.1998 28.32 44.2465 28.22 45.6198 28.22C45.7798 28.46 45.8998 28.8067 45.9798 29.26C46.5532 28.9533 47.1265 28.6867 47.6998 28.46C48.2865 28.22 48.6532 28.1 48.7998 28.1ZM59.9641 37.38C60.5507 37.38 61.4707 37.1 62.7241 36.54C62.9774 36.8867 63.1107 37.1933 63.1241 37.46C62.4441 37.86 61.7774 38.1733 61.1241 38.4C60.4707 38.6267 60.0041 38.74 59.7241 38.74C58.1774 38.74 56.9974 38.28 56.1841 37.36C55.3707 36.4267 54.9641 35.1267 54.9641 33.46C54.9641 31.7933 55.3574 30.4867 56.1441 29.54C56.9441 28.58 58.1374 28.1 59.7241 28.1C60.9507 28.1 61.8841 28.54 62.5241 29.42C63.1774 30.3 63.5041 31.48 63.5041 32.96C63.3974 33.1467 63.3107 33.2733 63.2441 33.34L56.8041 33.24C56.8174 34.5867 57.0507 35.6133 57.5041 36.32C57.9707 37.0267 58.7907 37.38 59.9641 37.38ZM61.6841 32.1C61.6841 31.22 61.5241 30.54 61.2041 30.06C60.8841 29.5667 60.3507 29.32 59.6041 29.32C58.8574 29.32 58.1907 29.46 57.6041 29.74C57.2041 30.54 56.9507 31.36 56.8441 32.2C57.8974 32.1867 59.5107 32.1533 61.6841 32.1ZM71.2584 29.78C71.1918 29.7133 71.0451 29.68 70.8184 29.68C70.5918 29.68 70.2518 29.76 69.7984 29.92C69.3584 30.08 68.9584 30.2667 68.5984 30.48C68.5184 33.44 68.4651 35.66 68.4384 37.14L70.1184 37.3C70.1184 37.6733 70.0051 38.0733 69.7784 38.5H65.1784L65.1184 37.8C65.7318 37.5867 66.3318 37.4267 66.9184 37.32C66.8384 33.9333 66.7718 31.4267 66.7184 29.8C65.9851 29.76 65.3984 29.68 64.9584 29.56L65.0384 28.52C65.7451 28.32 66.7918 28.22 68.1784 28.22C68.3918 28.5533 68.5251 28.98 68.5784 29.5C70.1118 28.5667 71.0251 28.1 71.3184 28.1C71.6118 28.1 71.9518 28.16 72.3384 28.28C72.7251 28.3867 73.0118 28.5067 73.1984 28.64C73.1984 29.9733 73.0718 31.06 72.8184 31.9C72.6318 31.9533 72.4118 31.98 72.1584 31.98C71.9184 31.98 71.7518 31.9733 71.6584 31.96L71.2584 29.78ZM82.1428 31.96L82.0428 37.12C82.6161 37.16 83.1895 37.2533 83.7628 37.4L83.7228 38.1C83.5095 38.2067 83.1228 38.3267 82.5628 38.46C82.0161 38.58 81.4761 38.64 80.9428 38.64C80.7028 38.16 80.5695 37.7 80.5428 37.26C79.0228 38.26 77.9561 38.76 77.3428 38.76C76.3961 38.76 75.6361 38.5067 75.0628 38C74.4895 37.4933 74.2028 36.7867 74.2028 35.88C74.2028 33.7867 75.4828 32.7067 78.0428 32.64C79.5361 32.6 80.2895 32.58 80.3028 32.58L80.2828 31.9C80.2561 30.98 80.0828 30.32 79.7628 29.92C79.4428 29.5067 78.8695 29.3 78.0428 29.3C77.6961 29.3 77.3228 29.38 76.9228 29.54L76.4428 31.54C76.3761 31.5533 76.2628 31.56 76.1028 31.56L75.2828 31.5C75.0695 30.9267 74.9561 30.1333 74.9428 29.12C75.1961 28.9867 75.7761 28.7867 76.6828 28.52C77.5895 28.24 78.1695 28.1 78.4228 28.1C79.7828 28.1 80.7428 28.4 81.3028 29C81.8628 29.6 82.1428 30.5867 82.1428 31.96ZM77.7828 37.4C78.1695 37.4 79.0628 36.9667 80.4628 36.1L80.3628 33.6C79.4561 33.68 78.6961 33.7533 78.0828 33.82C77.4695 33.8867 76.9761 34.0667 76.6028 34.36C76.2295 34.64 76.0428 35.0867 76.0428 35.7C76.0428 36.8333 76.6228 37.4 77.7828 37.4ZM86.3641 37.26L86.2041 29.72H84.6641L84.6041 29.02C84.7374 28.9267 85.1241 28.7533 85.7641 28.5L87.4041 25.94C87.6707 25.9667 87.8774 26.0333 88.0241 26.14L88.0041 28.34C89.0041 28.34 89.8241 28.4067 90.4641 28.54C90.4641 28.9 90.3507 29.2933 90.1241 29.72H87.9641C87.9374 31.32 87.9107 33.7467 87.8841 37C88.6307 37.04 89.3774 37.1733 90.1241 37.4L90.1041 38.1C89.9174 38.22 89.4374 38.36 88.6641 38.52C87.9041 38.68 87.2774 38.76 86.7841 38.76C86.7174 38.6533 86.6307 38.4267 86.5241 38.08C86.4174 37.72 86.3641 37.4467 86.3641 37.26ZM96.9172 37.38C97.5039 37.38 98.4239 37.1 99.6772 36.54C99.9305 36.8867 100.064 37.1933 100.077 37.46C99.3972 37.86 98.7305 38.1733 98.0772 38.4C97.4239 38.6267 96.9572 38.74 96.6772 38.74C95.1305 38.74 93.9505 38.28 93.1372 37.36C92.3239 36.4267 91.9172 35.1267 91.9172 33.46C91.9172 31.7933 92.3105 30.4867 93.0972 29.54C93.8972 28.58 95.0905 28.1 96.6772 28.1C97.9039 28.1 98.8372 28.54 99.4772 29.42C100.131 30.3 100.457 31.48 100.457 32.96C100.351 33.1467 100.264 33.2733 100.197 33.34L93.7572 33.24C93.7705 34.5867 94.0039 35.6133 94.4572 36.32C94.9239 37.0267 95.7439 37.38 96.9172 37.38ZM98.6372 32.1C98.6372 31.22 98.4772 30.54 98.1572 30.06C97.8372 29.5667 97.3039 29.32 96.5572 29.32C95.8105 29.32 95.1439 29.46 94.5572 29.74C94.1572 30.54 93.9039 31.36 93.7972 32.2C94.8505 32.1867 96.4639 32.1533 98.6372 32.1ZM108.952 29.24L108.892 25.24C108.158 25.2 107.572 25.12 107.132 25L107.212 23.96C107.892 23.76 108.878 23.66 110.172 23.66C110.585 23.66 110.878 23.6733 111.052 23.7C111.052 23.94 111.012 24.26 110.932 24.66C110.865 25.0467 110.818 25.26 110.792 25.3L110.612 37.12C111.158 37.1467 111.738 37.24 112.352 37.4L112.312 38.1C111.392 38.5267 110.578 38.74 109.872 38.74C109.725 38.74 109.612 38.7333 109.532 38.72C109.425 38.52 109.292 38.06 109.132 37.34C107.598 38.2067 106.525 38.6733 105.912 38.74C104.632 38.74 103.672 38.2533 103.032 37.28C102.392 36.3067 102.072 35.06 102.072 33.54C102.072 32.0067 102.392 30.72 103.032 29.68C103.685 28.6267 104.645 28.1 105.912 28.1C106.898 28.1 107.912 28.48 108.952 29.24ZM106.252 29.46C104.692 29.46 103.912 30.74 103.912 33.3C103.912 34.3 104.072 35.1667 104.392 35.9C104.552 36.3 104.785 36.62 105.092 36.86C105.412 37.1 105.778 37.22 106.192 37.22C106.605 37.22 107.085 37.1267 107.632 36.94C108.192 36.7533 108.672 36.54 109.072 36.3L108.952 30.6C108.592 30.2933 108.152 30.0267 107.632 29.8C107.112 29.5733 106.652 29.46 106.252 29.46Z" fill="white"/>
<path d="M140.55 23.5503L142.672 25.6715M145.5 21.5V24.5M150.45 23.5503L148.328 25.6715M152.5 28.5H149.5M150.45 33.4497L148.328 31.3285M145.5 35.5V32.5M140.55 33.4497L142.672 31.3285M138.5 28.5H141.5" stroke="white" stroke-width="2" stroke-linecap="round" stroke-linejoin="round"/>
<path d="M145.293 28.7072L133.272 40.728" stroke="white" stroke-width="2" stroke-linecap="round" stroke-linejoin="round"/>
</svg>
