<svg width="216" height="63" viewBox="0 0 216 63" fill="none" xmlns="http://www.w3.org/2000/svg">
<rect width="216" height="63" rx="10" fill="#019A5A"/>
<path d="M28.36 26.98L28.16 37.14L29.84 37.3C29.84 37.6733 29.7267 38.0733 29.5 38.5H24.9L24.84 37.8C25.56 37.56 26.1733 37.4 26.68 37.32C26.6533 36.4533 26.6067 34.6667 26.54 31.96C26.4867 29.2533 26.44 27.16 26.4 25.68C25.8933 25.6 25.2933 25.44 24.6 25.2L24.66 24.5H28.62L35.92 36.16L35.58 25.68C35.0867 25.5867 34.4933 25.4267 33.8 25.2L33.86 24.5H38.86C39.0867 24.9267 39.2 25.3267 39.2 25.7C38.5333 25.7533 38 25.78 37.6 25.78L37.4 38.5H35.46L28.36 26.98ZM45.5031 37.38C46.0898 37.38 47.0098 37.1 48.2631 36.54C48.5165 36.8867 48.6498 37.1933 48.6631 37.46C47.9831 37.86 47.3165 38.1733 46.6631 38.4C46.0098 38.6267 45.5431 38.74 45.2631 38.74C43.7165 38.74 42.5365 38.28 41.7231 37.36C40.9098 36.4267 40.5031 35.1267 40.5031 33.46C40.5031 31.7933 40.8965 30.4867 41.6831 29.54C42.4831 28.58 43.6765 28.1 45.2631 28.1C46.4898 28.1 47.4231 28.54 48.0631 29.42C48.7165 30.3 49.0431 31.48 49.0431 32.96C48.9365 33.1467 48.8498 33.2733 48.7831 33.34L42.3431 33.24C42.3565 34.5867 42.5898 35.6133 43.0431 36.32C43.5098 37.0267 44.3298 37.38 45.5031 37.38ZM47.2231 32.1C47.2231 31.22 47.0631 30.54 46.7431 30.06C46.4231 29.5667 45.8898 29.32 45.1431 29.32C44.3965 29.32 43.7298 29.46 43.1431 29.74C42.7431 30.54 42.4898 31.36 42.3831 32.2C43.4365 32.1867 45.0498 32.1533 47.2231 32.1ZM58.4975 30.64H58.4175L56.1375 38.5H54.1575L51.4175 29.7L49.7375 29.54C49.7375 29.1667 49.8508 28.7667 50.0775 28.34H54.6775L54.7375 29.04C54.3108 29.2267 53.8375 29.3733 53.3175 29.48L54.7375 34.94L55.0975 36.7H55.2975L55.6975 34.92L57.7175 28.34C57.8775 28.3267 57.9908 28.32 58.0575 28.32L59.4375 28.36L61.5775 34.94L62.0175 36.7H62.1975L62.5175 34.92L64.1975 29.48L62.5175 29.04L62.5775 28.34H67.0775C67.3042 28.7667 67.4175 29.1667 67.4175 29.54C66.8708 29.6067 66.3242 29.6533 65.7775 29.68L63.0375 38.5H61.0575L58.4975 30.64ZM74.7003 37.22C75.167 37.42 75.7336 37.52 76.4003 37.52C77.0803 37.52 77.6136 37.3933 78.0003 37.14C78.387 36.8867 78.5803 36.54 78.5803 36.1C78.5803 35.66 78.4003 35.2933 78.0403 35C77.6803 34.7067 77.2403 34.4467 76.7203 34.22C76.2003 33.9933 75.6803 33.7533 75.1603 33.5C74.6403 33.2467 74.2003 32.9133 73.8403 32.5C73.4803 32.0867 73.3003 31.6067 73.3003 31.06C73.3003 30.14 73.607 29.42 74.2203 28.9C74.8336 28.3667 75.6803 28.1 76.7603 28.1C77.8536 28.1 78.8803 28.3467 79.8403 28.84C79.8536 28.9733 79.8603 29.3333 79.8603 29.92C79.8603 30.4933 79.8003 30.9867 79.6803 31.4C79.3603 31.5067 78.9803 31.56 78.5403 31.56L77.8803 29.52C77.587 29.3733 77.187 29.3 76.6803 29.3C76.187 29.3 75.7936 29.4333 75.5003 29.7C75.207 29.9533 75.0603 30.28 75.0603 30.68C75.0603 31.0667 75.2403 31.4067 75.6003 31.7C75.9736 31.9933 76.4203 32.26 76.9403 32.5C77.4603 32.7267 77.9803 32.9733 78.5003 33.24C79.0203 33.4933 79.4603 33.8333 79.8203 34.26C80.1936 34.6733 80.3803 35.1533 80.3803 35.7C80.3803 36.66 80.007 37.4133 79.2603 37.96C78.527 38.4933 77.6203 38.76 76.5403 38.76C75.9536 38.76 75.327 38.6667 74.6603 38.48C73.9936 38.28 73.4336 38.0267 72.9803 37.72C72.9803 36.8267 73.0603 36.0333 73.2203 35.34C73.527 35.2867 73.9403 35.26 74.4603 35.26L74.7003 37.22ZM83.5633 37.26L83.4033 29.72H81.8633L81.8033 29.02C81.9366 28.9267 82.3233 28.7533 82.9633 28.5L84.6033 25.94C84.8699 25.9667 85.0766 26.0333 85.2233 26.14L85.2033 28.34C86.2033 28.34 87.0233 28.4067 87.6633 28.54C87.6633 28.9 87.5499 29.2933 87.3233 29.72H85.1633C85.1366 31.32 85.1099 33.7467 85.0833 37C85.8299 37.04 86.5766 37.1733 87.3233 37.4L87.3033 38.1C87.1166 38.22 86.6366 38.36 85.8633 38.52C85.1033 38.68 84.4766 38.76 83.9833 38.76C83.9166 38.6533 83.8299 38.4267 83.7233 38.08C83.6166 37.72 83.5633 37.4467 83.5633 37.26ZM94.1964 37.18C94.5831 37.18 95.0164 37.1 95.4964 36.94C95.9764 36.7667 96.3697 36.56 96.6764 36.32C96.6231 33.48 96.5764 31.3267 96.5364 29.86C95.7097 29.86 95.0964 29.78 94.6964 29.62L94.7764 28.58C95.9097 28.38 96.7964 28.28 97.4364 28.28C98.0897 28.28 98.5031 28.2933 98.6764 28.32C98.6764 28.56 98.6364 28.88 98.5564 29.28C98.4897 29.68 98.4431 29.9 98.4164 29.94L98.1764 37.08C98.8831 37.12 99.4564 37.2 99.8964 37.32L99.8564 38.34C99.2697 38.5267 98.7031 38.62 98.1564 38.62C97.6097 38.62 97.2764 38.6133 97.1564 38.6C96.9031 38.0933 96.7564 37.6267 96.7164 37.2C96.0631 37.6933 95.4564 38.0733 94.8964 38.34C94.3497 38.6067 93.9897 38.74 93.8164 38.74C92.6431 38.74 91.7897 38.4267 91.2564 37.8C90.7364 37.16 90.4764 36.2267 90.4764 35C90.4764 34.9867 90.5364 33.28 90.6564 29.88C89.8831 29.88 89.1697 29.7933 88.5164 29.62L88.5964 28.58C89.7297 28.38 90.6097 28.28 91.2364 28.28C91.8631 28.28 92.2631 28.2933 92.4364 28.32C92.4364 28.64 92.3964 28.9933 92.3164 29.38C92.2364 29.7667 92.1897 29.9533 92.1764 29.94L92.1964 34.26C92.1964 35.2733 92.3231 36.0133 92.5764 36.48C92.8297 36.9467 93.3697 37.18 94.1964 37.18ZM107.811 29.24L107.751 25.24C107.018 25.2 106.431 25.12 105.991 25L106.071 23.96C106.751 23.76 107.738 23.66 109.031 23.66C109.444 23.66 109.738 23.6733 109.911 23.7C109.911 23.94 109.871 24.26 109.791 24.66C109.724 25.0467 109.678 25.26 109.651 25.3L109.471 37.12C110.018 37.1467 110.598 37.24 111.211 37.4L111.171 38.1C110.251 38.5267 109.438 38.74 108.731 38.74C108.584 38.74 108.471 38.7333 108.391 38.72C108.284 38.52 108.151 38.06 107.991 37.34C106.458 38.2067 105.384 38.6733 104.771 38.74C103.491 38.74 102.531 38.2533 101.891 37.28C101.251 36.3067 100.931 35.06 100.931 33.54C100.931 32.0067 101.251 30.72 101.891 29.68C102.544 28.6267 103.504 28.1 104.771 28.1C105.758 28.1 106.771 28.48 107.811 29.24ZM105.111 29.46C103.551 29.46 102.771 30.74 102.771 33.3C102.771 34.3 102.931 35.1667 103.251 35.9C103.411 36.3 103.644 36.62 103.951 36.86C104.271 37.1 104.638 37.22 105.051 37.22C105.464 37.22 105.944 37.1267 106.491 36.94C107.051 36.7533 107.531 36.54 107.931 36.3L107.811 30.6C107.451 30.2933 107.011 30.0267 106.491 29.8C105.971 29.5733 105.511 29.46 105.111 29.46ZM117.32 37.38C117.906 37.38 118.826 37.1 120.08 36.54C120.333 36.8867 120.466 37.1933 120.48 37.46C119.8 37.86 119.133 38.1733 118.48 38.4C117.826 38.6267 117.36 38.74 117.08 38.74C115.533 38.74 114.353 38.28 113.54 37.36C112.726 36.4267 112.32 35.1267 112.32 33.46C112.32 31.7933 112.713 30.4867 113.5 29.54C114.3 28.58 115.493 28.1 117.08 28.1C118.306 28.1 119.24 28.54 119.88 29.42C120.533 30.3 120.86 31.48 120.86 32.96C120.753 33.1467 120.666 33.2733 120.6 33.34L114.16 33.24C114.173 34.5867 114.406 35.6133 114.86 36.32C115.326 37.0267 116.146 37.38 117.32 37.38ZM119.04 32.1C119.04 31.22 118.88 30.54 118.56 30.06C118.24 29.5667 117.706 29.32 116.96 29.32C116.213 29.32 115.546 29.46 114.96 29.74C114.56 30.54 114.306 31.36 114.2 32.2C115.253 32.1867 116.866 32.1533 119.04 32.1ZM128.714 28.1C129.994 28.1 130.921 28.42 131.494 29.06C132.067 29.6867 132.354 30.6467 132.354 31.94C132.354 32.3133 132.301 34.0467 132.194 37.14L133.874 37.3C133.874 37.6733 133.761 38.0733 133.534 38.5H128.934L128.874 37.8C129.487 37.5867 130.087 37.4267 130.674 37.32C130.594 33.8267 130.521 31.8867 130.454 31.5C130.401 31.1 130.307 30.7533 130.174 30.46C130.041 30.1667 129.841 29.96 129.574 29.84C129.307 29.72 128.954 29.66 128.514 29.66C127.634 29.66 126.781 29.8733 125.954 30.3C125.874 33.34 125.821 35.62 125.794 37.14L127.474 37.3C127.474 37.6733 127.361 38.0733 127.134 38.5H122.534L122.474 37.8C123.087 37.5867 123.687 37.4267 124.274 37.32C124.194 33.9333 124.127 31.4267 124.074 29.8C123.341 29.76 122.754 29.68 122.314 29.56L122.394 28.52C123.114 28.32 124.161 28.22 125.534 28.22C125.694 28.46 125.814 28.8067 125.894 29.26C126.467 28.9533 127.041 28.6867 127.614 28.46C128.201 28.22 128.567 28.1 128.714 28.1ZM136.278 37.26L136.118 29.72H134.578L134.518 29.02C134.651 28.9267 135.038 28.7533 135.678 28.5L137.318 25.94C137.585 25.9667 137.791 26.0333 137.938 26.14L137.918 28.34C138.918 28.34 139.738 28.4067 140.378 28.54C140.378 28.9 140.265 29.2933 140.038 29.72H137.878C137.851 31.32 137.825 33.7467 137.798 37C138.545 37.04 139.291 37.1733 140.038 37.4L140.018 38.1C139.831 38.22 139.351 38.36 138.578 38.52C137.818 38.68 137.191 38.76 136.698 38.76C136.631 38.6533 136.545 38.4267 136.438 38.08C136.331 37.72 136.278 37.4467 136.278 37.26ZM143.411 37.22C143.878 37.42 144.445 37.52 145.111 37.52C145.791 37.52 146.325 37.3933 146.711 37.14C147.098 36.8867 147.291 36.54 147.291 36.1C147.291 35.66 147.111 35.2933 146.751 35C146.391 34.7067 145.951 34.4467 145.431 34.22C144.911 33.9933 144.391 33.7533 143.871 33.5C143.351 33.2467 142.911 32.9133 142.551 32.5C142.191 32.0867 142.011 31.6067 142.011 31.06C142.011 30.14 142.318 29.42 142.931 28.9C143.545 28.3667 144.391 28.1 145.471 28.1C146.565 28.1 147.591 28.3467 148.551 28.84C148.565 28.9733 148.571 29.3333 148.571 29.92C148.571 30.4933 148.511 30.9867 148.391 31.4C148.071 31.5067 147.691 31.56 147.251 31.56L146.591 29.52C146.298 29.3733 145.898 29.3 145.391 29.3C144.898 29.3 144.505 29.4333 144.211 29.7C143.918 29.9533 143.771 30.28 143.771 30.68C143.771 31.0667 143.951 31.4067 144.311 31.7C144.685 31.9933 145.131 32.26 145.651 32.5C146.171 32.7267 146.691 32.9733 147.211 33.24C147.731 33.4933 148.171 33.8333 148.531 34.26C148.905 34.6733 149.091 35.1533 149.091 35.7C149.091 36.66 148.718 37.4133 147.971 37.96C147.238 38.4933 146.331 38.76 145.251 38.76C144.665 38.76 144.038 38.6667 143.371 38.48C142.705 38.28 142.145 38.0267 141.691 37.72C141.691 36.8267 141.771 36.0333 141.931 35.34C142.238 35.2867 142.651 35.26 143.171 35.26L143.411 37.22Z" fill="white"/>
<path d="M178 43.1667C184.443 43.1667 189.667 37.9434 189.667 31.5C189.667 25.0567 184.443 19.8334 178 19.8334C171.557 19.8334 166.333 25.0567 166.333 31.5C166.333 37.9434 171.557 43.1667 178 43.1667Z" stroke="white" stroke-width="2" stroke-linejoin="round"/>
<path d="M178 26.8334V36.1667" stroke="white" stroke-width="2" stroke-linecap="round" stroke-linejoin="round"/>
<path d="M173.333 31.5H182.667" stroke="white" stroke-width="2" stroke-linecap="round" stroke-linejoin="round"/>
</svg>
