<svg width="330" height="63" viewBox="0 0 330 63" fill="none" xmlns="http://www.w3.org/2000/svg">
<rect width="330" height="63" rx="10" fill="#019A5A"/>
<path d="M36.72 37.16C38.7067 37.16 39.7 36.3533 39.7 34.74C39.7 33.9533 39.2133 33.2867 38.24 32.74C37.8 32.4867 37.3133 32.2467 36.78 32.02C36.26 31.7933 35.7333 31.5467 35.2 31.28C34.6667 31.0133 34.18 30.7267 33.74 30.42C33.3133 30.1133 32.96 29.7267 32.68 29.26C32.4133 28.7933 32.28 28.2667 32.28 27.68C32.28 26.72 32.6667 25.9067 33.44 25.24C34.2267 24.56 35.3 24.22 36.66 24.22C38.02 24.22 39.4533 24.6333 40.96 25.46C40.96 26.22 40.8667 27.1733 40.68 28.32C40.3867 28.36 40 28.38 39.52 28.38L38.92 26.06C38.76 25.98 38.44 25.9 37.96 25.82C37.4933 25.74 37.08 25.7 36.72 25.7C35.9467 25.7 35.3467 25.8667 34.92 26.2C34.4933 26.52 34.28 26.9733 34.28 27.56C34.28 28.1333 34.5267 28.6533 35.02 29.12C35.5267 29.5733 36.1333 29.9667 36.84 30.3C37.56 30.62 38.2733 30.9533 38.98 31.3C39.7 31.6467 40.3067 32.1 40.8 32.66C41.3067 33.2067 41.56 33.8467 41.56 34.58C41.56 35.9133 41.1133 36.9467 40.22 37.68C39.3267 38.4 38.16 38.76 36.72 38.76C35.9333 38.76 35.08 38.64 34.16 38.4C33.2533 38.1467 32.5 37.8267 31.9 37.44C31.9267 36.5467 32.0267 35.5133 32.2 34.34C32.4933 34.3 32.88 34.28 33.36 34.28L33.78 36.68C34.0733 36.8 34.5133 36.9133 35.1 37.02C35.7 37.1133 36.24 37.16 36.72 37.16ZM51.2248 31.96L51.1248 37.12C51.6982 37.16 52.2715 37.2533 52.8448 37.4L52.8048 38.1C52.5915 38.2067 52.2048 38.3267 51.6448 38.46C51.0982 38.58 50.5582 38.64 50.0248 38.64C49.7848 38.16 49.6515 37.7 49.6248 37.26C48.1048 38.26 47.0382 38.76 46.4248 38.76C45.4782 38.76 44.7182 38.5067 44.1448 38C43.5715 37.4933 43.2848 36.7867 43.2848 35.88C43.2848 33.7867 44.5648 32.7067 47.1248 32.64C48.6182 32.6 49.3715 32.58 49.3848 32.58L49.3648 31.9C49.3382 30.98 49.1648 30.32 48.8448 29.92C48.5248 29.5067 47.9515 29.3 47.1248 29.3C46.7782 29.3 46.4048 29.38 46.0048 29.54L45.5248 31.54C45.4582 31.5533 45.3448 31.56 45.1848 31.56L44.3648 31.5C44.1515 30.9267 44.0382 30.1333 44.0248 29.12C44.2782 28.9867 44.8582 28.7867 45.7648 28.52C46.6715 28.24 47.2515 28.1 47.5048 28.1C48.8648 28.1 49.8248 28.4 50.3848 29C50.9448 29.6 51.2248 30.5867 51.2248 31.96ZM46.8648 37.4C47.2515 37.4 48.1448 36.9667 49.5448 36.1L49.4448 33.6C48.5382 33.68 47.7782 33.7533 47.1648 33.82C46.5515 33.8867 46.0582 34.0667 45.6848 34.36C45.3115 34.64 45.1248 35.0867 45.1248 35.7C45.1248 36.8333 45.7048 37.4 46.8648 37.4ZM63.7061 29.68L59.8061 38.5H58.3861L54.7261 29.7L53.0461 29.54C53.0461 29.1667 53.1594 28.7667 53.3861 28.34H58.2261L58.2861 29.04C57.8594 29.2267 57.3861 29.3733 56.8661 29.48L58.6661 34.94L59.1261 36.7H59.3661L59.8661 34.92L61.7261 29.48L60.0461 29.04L60.1061 28.34H65.0061C65.2328 28.7667 65.3461 29.1667 65.3461 29.54C64.7994 29.6067 64.2528 29.6533 63.7061 29.68ZM70.843 37.38C71.4296 37.38 72.3496 37.1 73.603 36.54C73.8563 36.8867 73.9896 37.1933 74.003 37.46C73.323 37.86 72.6563 38.1733 72.003 38.4C71.3496 38.6267 70.883 38.74 70.603 38.74C69.0563 38.74 67.8763 38.28 67.063 37.36C66.2496 36.4267 65.843 35.1267 65.843 33.46C65.843 31.7933 66.2363 30.4867 67.023 29.54C67.823 28.58 69.0163 28.1 70.603 28.1C71.8296 28.1 72.763 28.54 73.403 29.42C74.0563 30.3 74.383 31.48 74.383 32.96C74.2763 33.1467 74.1896 33.2733 74.123 33.34L67.683 33.24C67.6963 34.5867 67.9296 35.6133 68.383 36.32C68.8496 37.0267 69.6696 37.38 70.843 37.38ZM72.563 32.1C72.563 31.22 72.403 30.54 72.083 30.06C71.763 29.5667 71.2296 29.32 70.483 29.32C69.7363 29.32 69.0696 29.46 68.483 29.74C68.083 30.54 67.8296 31.36 67.723 32.2C68.7763 32.1867 70.3896 32.1533 72.563 32.1ZM89.2327 31.96L89.1327 37.12C89.706 37.16 90.2793 37.2533 90.8527 37.4L90.8127 38.1C90.5993 38.2067 90.2127 38.3267 89.6527 38.46C89.106 38.58 88.566 38.64 88.0327 38.64C87.7927 38.16 87.6593 37.7 87.6327 37.26C86.1127 38.26 85.046 38.76 84.4327 38.76C83.486 38.76 82.726 38.5067 82.1527 38C81.5793 37.4933 81.2927 36.7867 81.2927 35.88C81.2927 33.7867 82.5727 32.7067 85.1327 32.64C86.626 32.6 87.3793 32.58 87.3927 32.58L87.3727 31.9C87.346 30.98 87.1727 30.32 86.8527 29.92C86.5327 29.5067 85.9593 29.3 85.1327 29.3C84.786 29.3 84.4127 29.38 84.0127 29.54L83.5327 31.54C83.466 31.5533 83.3527 31.56 83.1927 31.56L82.3727 31.5C82.1593 30.9267 82.046 30.1333 82.0327 29.12C82.286 28.9867 82.866 28.7867 83.7727 28.52C84.6793 28.24 85.2593 28.1 85.5127 28.1C86.8727 28.1 87.8327 28.4 88.3927 29C88.9527 29.6 89.2327 30.5867 89.2327 31.96ZM84.8727 37.4C85.2593 37.4 86.1527 36.9667 87.5527 36.1L87.4527 33.6C86.546 33.68 85.786 33.7533 85.1727 33.82C84.5593 33.8867 84.066 34.0667 83.6927 34.36C83.3193 34.64 83.1327 35.0867 83.1327 35.7C83.1327 36.8333 83.7127 37.4 84.8727 37.4ZM98.2139 28.1C99.4939 28.1 100.421 28.42 100.994 29.06C101.567 29.6867 101.854 30.6467 101.854 31.94C101.854 32.3133 101.801 34.0467 101.694 37.14L103.374 37.3C103.374 37.6733 103.261 38.0733 103.034 38.5H98.4339L98.3739 37.8C98.9872 37.5867 99.5872 37.4267 100.174 37.32C100.094 33.8267 100.021 31.8867 99.9539 31.5C99.9006 31.1 99.8072 30.7533 99.6739 30.46C99.5406 30.1667 99.3406 29.96 99.0739 29.84C98.8072 29.72 98.4539 29.66 98.0139 29.66C97.1339 29.66 96.2806 29.8733 95.4539 30.3C95.3739 33.34 95.3206 35.62 95.2939 37.14L96.9739 37.3C96.9739 37.6733 96.8606 38.0733 96.6339 38.5H92.0339L91.9739 37.8C92.5872 37.5867 93.1872 37.4267 93.7739 37.32C93.6939 33.9333 93.6272 31.4267 93.5739 29.8C92.8406 29.76 92.2539 29.68 91.8139 29.56L91.8939 28.52C92.6139 28.32 93.6606 28.22 95.0339 28.22C95.1939 28.46 95.3139 28.8067 95.3939 29.26C95.9672 28.9533 96.5406 28.6867 97.1139 28.46C97.7006 28.22 98.0672 28.1 98.2139 28.1ZM111.178 29.24L111.118 25.24C110.385 25.2 109.798 25.12 109.358 25L109.438 23.96C110.118 23.76 111.105 23.66 112.398 23.66C112.811 23.66 113.105 23.6733 113.278 23.7C113.278 23.94 113.238 24.26 113.158 24.66C113.091 25.0467 113.045 25.26 113.018 25.3L112.838 37.12C113.385 37.1467 113.965 37.24 114.578 37.4L114.538 38.1C113.618 38.5267 112.805 38.74 112.098 38.74C111.951 38.74 111.838 38.7333 111.758 38.72C111.651 38.52 111.518 38.06 111.358 37.34C109.825 38.2067 108.751 38.6733 108.138 38.74C106.858 38.74 105.898 38.2533 105.258 37.28C104.618 36.3067 104.298 35.06 104.298 33.54C104.298 32.0067 104.618 30.72 105.258 29.68C105.911 28.6267 106.871 28.1 108.138 28.1C109.125 28.1 110.138 28.48 111.178 29.24ZM108.478 29.46C106.918 29.46 106.138 30.74 106.138 33.3C106.138 34.3 106.298 35.1667 106.618 35.9C106.778 36.3 107.011 36.62 107.318 36.86C107.638 37.1 108.005 37.22 108.418 37.22C108.831 37.22 109.311 37.1267 109.858 36.94C110.418 36.7533 110.898 36.54 111.298 36.3L111.178 30.6C110.818 30.2933 110.378 30.0267 109.858 29.8C109.338 29.5733 108.878 29.46 108.478 29.46ZM128.842 31.96L128.742 37.12C129.315 37.16 129.889 37.2533 130.462 37.4L130.422 38.1C130.209 38.2067 129.822 38.3267 129.262 38.46C128.715 38.58 128.175 38.64 127.642 38.64C127.402 38.16 127.269 37.7 127.242 37.26C125.722 38.26 124.655 38.76 124.042 38.76C123.095 38.76 122.335 38.5067 121.762 38C121.189 37.4933 120.902 36.7867 120.902 35.88C120.902 33.7867 122.182 32.7067 124.742 32.64C126.235 32.6 126.989 32.58 127.002 32.58L126.982 31.9C126.955 30.98 126.782 30.32 126.462 29.92C126.142 29.5067 125.569 29.3 124.742 29.3C124.395 29.3 124.022 29.38 123.622 29.54L123.142 31.54C123.075 31.5533 122.962 31.56 122.802 31.56L121.982 31.5C121.769 30.9267 121.655 30.1333 121.642 29.12C121.895 28.9867 122.475 28.7867 123.382 28.52C124.289 28.24 124.869 28.1 125.122 28.1C126.482 28.1 127.442 28.4 128.002 29C128.562 29.6 128.842 30.5867 128.842 31.96ZM124.482 37.4C124.869 37.4 125.762 36.9667 127.162 36.1L127.062 33.6C126.155 33.68 125.395 33.7533 124.782 33.82C124.169 33.8867 123.675 34.0667 123.302 34.36C122.929 34.64 122.742 35.0867 122.742 35.7C122.742 36.8333 123.322 37.4 124.482 37.4ZM133.243 37.22C133.71 37.42 134.277 37.52 134.943 37.52C135.623 37.52 136.157 37.3933 136.543 37.14C136.93 36.8867 137.123 36.54 137.123 36.1C137.123 35.66 136.943 35.2933 136.583 35C136.223 34.7067 135.783 34.4467 135.263 34.22C134.743 33.9933 134.223 33.7533 133.703 33.5C133.183 33.2467 132.743 32.9133 132.383 32.5C132.023 32.0867 131.843 31.6067 131.843 31.06C131.843 30.14 132.15 29.42 132.763 28.9C133.377 28.3667 134.223 28.1 135.303 28.1C136.397 28.1 137.423 28.3467 138.383 28.84C138.397 28.9733 138.403 29.3333 138.403 29.92C138.403 30.4933 138.343 30.9867 138.223 31.4C137.903 31.5067 137.523 31.56 137.083 31.56L136.423 29.52C136.13 29.3733 135.73 29.3 135.223 29.3C134.73 29.3 134.337 29.4333 134.043 29.7C133.75 29.9533 133.603 30.28 133.603 30.68C133.603 31.0667 133.783 31.4067 134.143 31.7C134.517 31.9933 134.963 32.26 135.483 32.5C136.003 32.7267 136.523 32.9733 137.043 33.24C137.563 33.4933 138.003 33.8333 138.363 34.26C138.737 34.6733 138.923 35.1533 138.923 35.7C138.923 36.66 138.55 37.4133 137.803 37.96C137.07 38.4933 136.163 38.76 135.083 38.76C134.497 38.76 133.87 38.6667 133.203 38.48C132.537 38.28 131.977 38.0267 131.523 37.72C131.523 36.8267 131.603 36.0333 131.763 35.34C132.07 35.2867 132.483 35.26 133.003 35.26L133.243 37.22ZM142.286 37.22C142.753 37.42 143.32 37.52 143.986 37.52C144.666 37.52 145.2 37.3933 145.586 37.14C145.973 36.8867 146.166 36.54 146.166 36.1C146.166 35.66 145.986 35.2933 145.626 35C145.266 34.7067 144.826 34.4467 144.306 34.22C143.786 33.9933 143.266 33.7533 142.746 33.5C142.226 33.2467 141.786 32.9133 141.426 32.5C141.066 32.0867 140.886 31.6067 140.886 31.06C140.886 30.14 141.193 29.42 141.806 28.9C142.42 28.3667 143.266 28.1 144.346 28.1C145.44 28.1 146.466 28.3467 147.426 28.84C147.44 28.9733 147.446 29.3333 147.446 29.92C147.446 30.4933 147.386 30.9867 147.266 31.4C146.946 31.5067 146.566 31.56 146.126 31.56L145.466 29.52C145.173 29.3733 144.773 29.3 144.266 29.3C143.773 29.3 143.38 29.4333 143.086 29.7C142.793 29.9533 142.646 30.28 142.646 30.68C142.646 31.0667 142.826 31.4067 143.186 31.7C143.56 31.9933 144.006 32.26 144.526 32.5C145.046 32.7267 145.566 32.9733 146.086 33.24C146.606 33.4933 147.046 33.8333 147.406 34.26C147.78 34.6733 147.966 35.1533 147.966 35.7C147.966 36.66 147.593 37.4133 146.846 37.96C146.113 38.4933 145.206 38.76 144.126 38.76C143.54 38.76 142.913 38.6667 142.246 38.48C141.58 38.28 141.02 38.0267 140.566 37.72C140.566 36.8267 140.646 36.0333 140.806 35.34C141.113 35.2867 141.526 35.26 142.046 35.26L142.286 37.22ZM153.269 26.44C152.923 26.52 152.583 26.56 152.249 26.56C151.929 26.56 151.609 26.54 151.289 26.5C151.209 26.1267 151.169 25.7533 151.169 25.38C151.169 24.9933 151.183 24.7067 151.209 24.52C151.503 24.4533 151.809 24.42 152.129 24.42C152.463 24.42 152.816 24.4333 153.189 24.46C153.269 24.8067 153.309 25.1467 153.309 25.48C153.309 25.8 153.296 26.12 153.269 26.44ZM149.629 28.54C150.763 28.34 151.643 28.24 152.269 28.24C152.896 28.24 153.296 28.2533 153.469 28.28C153.469 28.6 153.429 28.9533 153.349 29.34C153.269 29.7267 153.223 29.9133 153.209 29.9L153.029 37.14L154.709 37.3C154.709 37.6733 154.596 38.0733 154.369 38.5H149.769L149.709 37.8C150.323 37.5867 150.923 37.4267 151.509 37.32C151.429 33.9867 151.363 31.4867 151.309 29.82C150.536 29.82 149.949 29.74 149.549 29.58L149.629 28.54ZM161.102 37.28L162.882 37.24C164.722 37.24 165.642 38 165.642 39.52C165.642 40.2267 165.335 40.88 164.722 41.48C164.122 42.0933 163.402 42.5533 162.562 42.86C161.722 43.1667 160.935 43.32 160.202 43.32C159.482 43.32 158.808 43.2133 158.182 43C157.555 42.8 157.022 42.4667 156.582 42C156.142 41.5333 155.922 40.9933 155.922 40.38C155.922 40.2333 156.155 39.8467 156.622 39.22C157.102 38.6067 157.415 38.2467 157.562 38.14C157.442 38.06 157.208 37.8333 156.862 37.46C156.515 37.0733 156.322 36.8067 156.282 36.66C156.615 36.0467 157.142 35.4467 157.862 34.86C156.795 34.22 156.262 33.1667 156.262 31.7C156.262 30.5267 156.635 29.6333 157.382 29.02C158.128 28.4067 159.062 28.1 160.182 28.1C161.302 28.1 162.168 28.28 162.782 28.64C163.848 28.4267 164.895 28.32 165.922 28.32C166.175 28.32 166.302 28.4733 166.302 28.78C166.302 29.3133 166.202 29.68 166.002 29.88L163.702 29.5C164.182 30.1133 164.422 30.8467 164.422 31.7C164.422 33.0333 164.028 33.9933 163.242 34.58C162.455 35.1533 161.488 35.44 160.342 35.44C159.982 35.44 159.555 35.3933 159.062 35.3C158.862 35.7133 158.608 36.16 158.302 36.64C158.542 37.0667 159.475 37.28 161.102 37.28ZM163.642 40.96C163.775 40.5867 163.842 40.2 163.842 39.8C163.842 39.4133 163.688 39.1 163.382 38.86C163.075 38.62 162.682 38.5 162.202 38.5C160.295 38.5 159.128 38.48 158.702 38.44C158.342 39.0133 158.088 39.4933 157.942 39.88C157.808 40.28 157.742 40.5067 157.742 40.56C157.742 41.08 157.988 41.4667 158.482 41.72C158.975 41.9733 159.542 42.1 160.182 42.1C160.835 42.1 161.488 41.9933 162.142 41.78C162.808 41.5667 163.308 41.2933 163.642 40.96ZM162.622 31.78C162.622 30.1267 161.862 29.3 160.342 29.3C158.822 29.3 158.062 30.1 158.062 31.7C158.062 32.5133 158.262 33.14 158.662 33.58C159.062 34.02 159.642 34.24 160.402 34.24C161.882 34.24 162.622 33.42 162.622 31.78ZM173.624 28.1C174.904 28.1 175.831 28.42 176.404 29.06C176.977 29.6867 177.264 30.6467 177.264 31.94C177.264 32.3133 177.211 34.0467 177.104 37.14L178.784 37.3C178.784 37.6733 178.671 38.0733 178.444 38.5H173.844L173.784 37.8C174.397 37.5867 174.997 37.4267 175.584 37.32C175.504 33.8267 175.431 31.8867 175.364 31.5C175.311 31.1 175.217 30.7533 175.084 30.46C174.951 30.1667 174.751 29.96 174.484 29.84C174.217 29.72 173.864 29.66 173.424 29.66C172.544 29.66 171.691 29.8733 170.864 30.3C170.784 33.34 170.731 35.62 170.704 37.14L172.384 37.3C172.384 37.6733 172.271 38.0733 172.044 38.5H167.444L167.384 37.8C167.997 37.5867 168.597 37.4267 169.184 37.32C169.104 33.9333 169.037 31.4267 168.984 29.8C168.251 29.76 167.664 29.68 167.224 29.56L167.304 28.52C168.024 28.32 169.071 28.22 170.444 28.22C170.604 28.46 170.724 28.8067 170.804 29.26C171.377 28.9533 171.951 28.6867 172.524 28.46C173.111 28.22 173.477 28.1 173.624 28.1ZM184.788 37.38C185.375 37.38 186.295 37.1 187.548 36.54C187.802 36.8867 187.935 37.1933 187.948 37.46C187.268 37.86 186.602 38.1733 185.948 38.4C185.295 38.6267 184.828 38.74 184.548 38.74C183.002 38.74 181.822 38.28 181.008 37.36C180.195 36.4267 179.788 35.1267 179.788 33.46C179.788 31.7933 180.182 30.4867 180.968 29.54C181.768 28.58 182.962 28.1 184.548 28.1C185.775 28.1 186.708 28.54 187.348 29.42C188.002 30.3 188.328 31.48 188.328 32.96C188.222 33.1467 188.135 33.2733 188.068 33.34L181.628 33.24C181.642 34.5867 181.875 35.6133 182.328 36.32C182.795 37.0267 183.615 37.38 184.788 37.38ZM186.508 32.1C186.508 31.22 186.348 30.54 186.028 30.06C185.708 29.5667 185.175 29.32 184.428 29.32C183.682 29.32 183.015 29.46 182.428 29.74C182.028 30.54 181.775 31.36 181.668 32.2C182.722 32.1867 184.335 32.1533 186.508 32.1ZM196.823 29.24L196.763 25.24C196.029 25.2 195.443 25.12 195.003 25L195.083 23.96C195.763 23.76 196.749 23.66 198.043 23.66C198.456 23.66 198.749 23.6733 198.923 23.7C198.923 23.94 198.883 24.26 198.803 24.66C198.736 25.0467 198.689 25.26 198.663 25.3L198.483 37.12C199.029 37.1467 199.609 37.24 200.223 37.4L200.183 38.1C199.263 38.5267 198.449 38.74 197.743 38.74C197.596 38.74 197.483 38.7333 197.403 38.72C197.296 38.52 197.163 38.06 197.003 37.34C195.469 38.2067 194.396 38.6733 193.783 38.74C192.503 38.74 191.543 38.2533 190.903 37.28C190.263 36.3067 189.943 35.06 189.943 33.54C189.943 32.0067 190.263 30.72 190.903 29.68C191.556 28.6267 192.516 28.1 193.783 28.1C194.769 28.1 195.783 28.48 196.823 29.24ZM194.123 29.46C192.563 29.46 191.783 30.74 191.783 33.3C191.783 34.3 191.943 35.1667 192.263 35.9C192.423 36.3 192.656 36.62 192.963 36.86C193.283 37.1 193.649 37.22 194.063 37.22C194.476 37.22 194.956 37.1267 195.503 36.94C196.063 36.7533 196.543 36.54 196.943 36.3L196.823 30.6C196.463 30.2933 196.023 30.0267 195.503 29.8C194.983 29.5733 194.523 29.46 194.123 29.46ZM208.107 37.22C208.573 37.42 209.14 37.52 209.807 37.52C210.487 37.52 211.02 37.3933 211.407 37.14C211.793 36.8867 211.987 36.54 211.987 36.1C211.987 35.66 211.807 35.2933 211.447 35C211.087 34.7067 210.647 34.4467 210.127 34.22C209.607 33.9933 209.087 33.7533 208.567 33.5C208.047 33.2467 207.607 32.9133 207.247 32.5C206.887 32.0867 206.707 31.6067 206.707 31.06C206.707 30.14 207.013 29.42 207.627 28.9C208.24 28.3667 209.087 28.1 210.167 28.1C211.26 28.1 212.287 28.3467 213.247 28.84C213.26 28.9733 213.267 29.3333 213.267 29.92C213.267 30.4933 213.207 30.9867 213.087 31.4C212.767 31.5067 212.387 31.56 211.947 31.56L211.287 29.52C210.993 29.3733 210.593 29.3 210.087 29.3C209.593 29.3 209.2 29.4333 208.907 29.7C208.613 29.9533 208.467 30.28 208.467 30.68C208.467 31.0667 208.647 31.4067 209.007 31.7C209.38 31.9933 209.827 32.26 210.347 32.5C210.867 32.7267 211.387 32.9733 211.907 33.24C212.427 33.4933 212.867 33.8333 213.227 34.26C213.6 34.6733 213.787 35.1533 213.787 35.7C213.787 36.66 213.413 37.4133 212.667 37.96C211.933 38.4933 211.027 38.76 209.947 38.76C209.36 38.76 208.733 38.6667 208.067 38.48C207.4 38.28 206.84 38.0267 206.387 37.72C206.387 36.8267 206.467 36.0333 206.627 35.34C206.933 35.2867 207.347 35.26 207.867 35.26L208.107 37.22ZM218.29 23.64C218.703 23.64 218.996 23.6533 219.17 23.68C219.17 23.92 219.13 24.2333 219.05 24.62C218.983 24.9933 218.936 25.2133 218.91 25.28C218.91 25.5733 218.896 26.18 218.87 27.1C218.843 28.02 218.83 28.7333 218.83 29.24C219.403 28.9333 219.97 28.6667 220.53 28.44C221.103 28.2133 221.463 28.1 221.61 28.1C222.89 28.1 223.816 28.42 224.39 29.06C224.963 29.6867 225.25 30.6467 225.25 31.94C225.25 32.3133 225.196 34.0467 225.09 37.14L226.77 37.3C226.77 37.6733 226.656 38.0733 226.43 38.5H221.83L221.77 37.8C222.383 37.5867 222.983 37.4267 223.57 37.32C223.49 33.8267 223.416 31.8867 223.35 31.5C223.296 31.1 223.203 30.7533 223.07 30.46C222.936 30.1667 222.736 29.96 222.47 29.84C222.203 29.72 221.85 29.66 221.41 29.66C220.503 29.66 219.636 29.8733 218.81 30.3L218.69 37.14L220.37 37.3C220.37 37.6733 220.256 38.0733 220.03 38.5H215.43L215.37 37.8C215.983 37.5867 216.583 37.4267 217.17 37.32L216.93 25.22C216.196 25.18 215.61 25.1 215.17 24.98L215.25 23.94C215.93 23.74 216.943 23.64 218.29 23.64ZM232.913 37.38C233.5 37.38 234.42 37.1 235.673 36.54C235.927 36.8867 236.06 37.1933 236.073 37.46C235.393 37.86 234.727 38.1733 234.073 38.4C233.42 38.6267 232.953 38.74 232.673 38.74C231.127 38.74 229.947 38.28 229.133 37.36C228.32 36.4267 227.913 35.1267 227.913 33.46C227.913 31.7933 228.307 30.4867 229.093 29.54C229.893 28.58 231.087 28.1 232.673 28.1C233.9 28.1 234.833 28.54 235.473 29.42C236.127 30.3 236.453 31.48 236.453 32.96C236.347 33.1467 236.26 33.2733 236.193 33.34L229.753 33.24C229.767 34.5867 230 35.6133 230.453 36.32C230.92 37.0267 231.74 37.38 232.913 37.38ZM234.633 32.1C234.633 31.22 234.473 30.54 234.153 30.06C233.833 29.5667 233.3 29.32 232.553 29.32C231.807 29.32 231.14 29.46 230.553 29.74C230.153 30.54 229.9 31.36 229.793 32.2C230.847 32.1867 232.46 32.1533 234.633 32.1ZM243.148 37.38C243.734 37.38 244.654 37.1 245.908 36.54C246.161 36.8867 246.294 37.1933 246.308 37.46C245.628 37.86 244.961 38.1733 244.308 38.4C243.654 38.6267 243.188 38.74 242.908 38.74C241.361 38.74 240.181 38.28 239.368 37.36C238.554 36.4267 238.148 35.1267 238.148 33.46C238.148 31.7933 238.541 30.4867 239.328 29.54C240.128 28.58 241.321 28.1 242.908 28.1C244.134 28.1 245.068 28.54 245.708 29.42C246.361 30.3 246.688 31.48 246.688 32.96C246.581 33.1467 246.494 33.2733 246.428 33.34L239.988 33.24C240.001 34.5867 240.234 35.6133 240.688 36.32C241.154 37.0267 241.974 37.38 243.148 37.38ZM244.868 32.1C244.868 31.22 244.708 30.54 244.388 30.06C244.068 29.5667 243.534 29.32 242.788 29.32C242.041 29.32 241.374 29.46 240.788 29.74C240.388 30.54 240.134 31.36 240.028 32.2C241.081 32.1867 242.694 32.1533 244.868 32.1ZM249.782 37.26L249.622 29.72H248.082L248.022 29.02C248.155 28.9267 248.542 28.7533 249.182 28.5L250.822 25.94C251.089 25.9667 251.295 26.0333 251.442 26.14L251.422 28.34C252.422 28.34 253.242 28.4067 253.882 28.54C253.882 28.9 253.769 29.2933 253.542 29.72H251.382C251.355 31.32 251.329 33.7467 251.302 37C252.049 37.04 252.795 37.1733 253.542 37.4L253.522 38.1C253.335 38.22 252.855 38.36 252.082 38.52C251.322 38.68 250.695 38.76 250.202 38.76C250.135 38.6533 250.049 38.4267 249.942 38.08C249.835 37.72 249.782 37.4467 249.782 37.26Z" fill="white"/>
<path d="M293.381 21H273.619C272.656 21 271.875 21.7052 271.875 22.575V40.425C271.875 41.2949 272.656 42 273.619 42H293.381C294.344 42 295.125 41.2949 295.125 40.425V22.575C295.125 21.7052 294.344 21 293.381 21Z" stroke="white" stroke-width="2" stroke-linejoin="round"/>
<path d="M288.667 21V31.5H277.688V21H288.667Z" stroke="white" stroke-width="2" stroke-linejoin="round"/>
<path d="M284.792 25.0834V27.4167" stroke="white" stroke-width="2" stroke-linecap="round"/>
<path d="M275.102 21H291.249" stroke="white" stroke-width="2" stroke-linecap="round"/>
</svg>
