<svg width="230" height="63" viewBox="0 0 230 63" fill="none" xmlns="http://www.w3.org/2000/svg">
<rect width="230" height="63" rx="10" fill="#019A5A"/>
<path d="M36.72 37.16C38.7067 37.16 39.7 36.3533 39.7 34.74C39.7 33.9533 39.2133 33.2867 38.24 32.74C37.8 32.4867 37.3133 32.2467 36.78 32.02C36.26 31.7933 35.7333 31.5467 35.2 31.28C34.6667 31.0133 34.18 30.7267 33.74 30.42C33.3133 30.1133 32.96 29.7267 32.68 29.26C32.4133 28.7933 32.28 28.2667 32.28 27.68C32.28 26.72 32.6667 25.9067 33.44 25.24C34.2267 24.56 35.3 24.22 36.66 24.22C38.02 24.22 39.4533 24.6333 40.96 25.46C40.96 26.22 40.8667 27.1733 40.68 28.32C40.3867 28.36 40 28.38 39.52 28.38L38.92 26.06C38.76 25.98 38.44 25.9 37.96 25.82C37.4933 25.74 37.08 25.7 36.72 25.7C35.9467 25.7 35.3467 25.8667 34.92 26.2C34.4933 26.52 34.28 26.9733 34.28 27.56C34.28 28.1333 34.5267 28.6533 35.02 29.12C35.5267 29.5733 36.1333 29.9667 36.84 30.3C37.56 30.62 38.2733 30.9533 38.98 31.3C39.7 31.6467 40.3067 32.1 40.8 32.66C41.3067 33.2067 41.56 33.8467 41.56 34.58C41.56 35.9133 41.1133 36.9467 40.22 37.68C39.3267 38.4 38.16 38.76 36.72 38.76C35.9333 38.76 35.08 38.64 34.16 38.4C33.2533 38.1467 32.5 37.8267 31.9 37.44C31.9267 36.5467 32.0267 35.5133 32.2 34.34C32.4933 34.3 32.88 34.28 33.36 34.28L33.78 36.68C34.0733 36.8 34.5133 36.9133 35.1 37.02C35.7 37.1133 36.24 37.16 36.72 37.16ZM48.2648 37.38C48.8515 37.38 49.7715 37.1 51.0248 36.54C51.2782 36.8867 51.4115 37.1933 51.4248 37.46C50.7448 37.86 50.0782 38.1733 49.4248 38.4C48.7715 38.6267 48.3048 38.74 48.0248 38.74C46.4782 38.74 45.2982 38.28 44.4848 37.36C43.6715 36.4267 43.2648 35.1267 43.2648 33.46C43.2648 31.7933 43.6582 30.4867 44.4448 29.54C45.2448 28.58 46.4382 28.1 48.0248 28.1C49.2515 28.1 50.1848 28.54 50.8248 29.42C51.4782 30.3 51.8048 31.48 51.8048 32.96C51.6982 33.1467 51.6115 33.2733 51.5448 33.34L45.1048 33.24C45.1182 34.5867 45.3515 35.6133 45.8048 36.32C46.2715 37.0267 47.0915 37.38 48.2648 37.38ZM49.9848 32.1C49.9848 31.22 49.8248 30.54 49.5048 30.06C49.1848 29.5667 48.6515 29.32 47.9048 29.32C47.1582 29.32 46.4915 29.46 45.9048 29.74C45.5048 30.54 45.2515 31.36 45.1448 32.2C46.1982 32.1867 47.8115 32.1533 49.9848 32.1ZM54.8992 37.26L54.7392 29.72H53.1992L53.1392 29.02C53.2726 28.9267 53.6592 28.7533 54.2992 28.5L55.9392 25.94C56.2059 25.9667 56.4126 26.0333 56.5592 26.14L56.5392 28.34C57.5392 28.34 58.3592 28.4067 58.9992 28.54C58.9992 28.9 58.8859 29.2933 58.6592 29.72H56.4992C56.4726 31.32 56.4459 33.7467 56.4192 37C57.1659 37.04 57.9126 37.1733 58.6592 37.4L58.6392 38.1C58.4526 38.22 57.9726 38.36 57.1992 38.52C56.4392 38.68 55.8126 38.76 55.3192 38.76C55.2526 38.6533 55.1659 38.4267 55.0592 38.08C54.9526 37.72 54.8992 37.4467 54.8992 37.26ZM73.6077 31.96L73.5077 37.12C74.081 37.16 74.6543 37.2533 75.2277 37.4L75.1877 38.1C74.9743 38.2067 74.5877 38.3267 74.0277 38.46C73.481 38.58 72.941 38.64 72.4077 38.64C72.1677 38.16 72.0343 37.7 72.0077 37.26C70.4877 38.26 69.421 38.76 68.8077 38.76C67.861 38.76 67.101 38.5067 66.5277 38C65.9543 37.4933 65.6677 36.7867 65.6677 35.88C65.6677 33.7867 66.9477 32.7067 69.5077 32.64C71.001 32.6 71.7543 32.58 71.7677 32.58L71.7477 31.9C71.721 30.98 71.5477 30.32 71.2277 29.92C70.9077 29.5067 70.3343 29.3 69.5077 29.3C69.161 29.3 68.7877 29.38 68.3877 29.54L67.9077 31.54C67.841 31.5533 67.7277 31.56 67.5677 31.56L66.7477 31.5C66.5343 30.9267 66.421 30.1333 66.4077 29.12C66.661 28.9867 67.241 28.7867 68.1477 28.52C69.0543 28.24 69.6343 28.1 69.8877 28.1C71.2477 28.1 72.2077 28.4 72.7677 29C73.3277 29.6 73.6077 30.5867 73.6077 31.96ZM69.2477 37.4C69.6343 37.4 70.5277 36.9667 71.9277 36.1L71.8277 33.6C70.921 33.68 70.161 33.7533 69.5477 33.82C68.9343 33.8867 68.441 34.0667 68.0677 34.36C67.6943 34.64 67.5077 35.0867 67.5077 35.7C67.5077 36.8333 68.0877 37.4 69.2477 37.4ZM78.0089 37.22C78.4756 37.42 79.0422 37.52 79.7089 37.52C80.3889 37.52 80.9222 37.3933 81.3089 37.14C81.6956 36.8867 81.8889 36.54 81.8889 36.1C81.8889 35.66 81.7089 35.2933 81.3489 35C80.9889 34.7067 80.5489 34.4467 80.0289 34.22C79.5089 33.9933 78.9889 33.7533 78.4689 33.5C77.9489 33.2467 77.5089 32.9133 77.1489 32.5C76.7889 32.0867 76.6089 31.6067 76.6089 31.06C76.6089 30.14 76.9156 29.42 77.5289 28.9C78.1422 28.3667 78.9889 28.1 80.0689 28.1C81.1622 28.1 82.1889 28.3467 83.1489 28.84C83.1622 28.9733 83.1689 29.3333 83.1689 29.92C83.1689 30.4933 83.1089 30.9867 82.9889 31.4C82.6689 31.5067 82.2889 31.56 81.8489 31.56L81.1889 29.52C80.8956 29.3733 80.4956 29.3 79.9889 29.3C79.4956 29.3 79.1022 29.4333 78.8089 29.7C78.5156 29.9533 78.3689 30.28 78.3689 30.68C78.3689 31.0667 78.5489 31.4067 78.9089 31.7C79.2822 31.9933 79.7289 32.26 80.2489 32.5C80.7689 32.7267 81.2889 32.9733 81.8089 33.24C82.3289 33.4933 82.7689 33.8333 83.1289 34.26C83.5022 34.6733 83.6889 35.1533 83.6889 35.7C83.6889 36.66 83.3156 37.4133 82.5689 37.96C81.8356 38.4933 80.9289 38.76 79.8489 38.76C79.2622 38.76 78.6356 38.6667 77.9689 38.48C77.3022 38.28 76.7422 38.0267 76.2889 37.72C76.2889 36.8267 76.3689 36.0333 76.5289 35.34C76.8356 35.2867 77.2489 35.26 77.7689 35.26L78.0089 37.22ZM100.287 30.34C100.341 30.7667 100.367 31.26 100.367 31.82C100.367 32.38 100.314 34.1533 100.207 37.14L101.887 37.3C101.887 37.6733 101.774 38.0733 101.547 38.5H96.9472L96.8872 37.8C97.5005 37.5867 98.1005 37.4267 98.6872 37.32C98.6072 33.7733 98.5339 31.8 98.4672 31.4C98.4139 31 98.3205 30.6667 98.1872 30.4C98.0539 30.12 97.8472 29.9267 97.5672 29.82C97.2872 29.7133 96.8605 29.66 96.2872 29.66C95.7272 29.66 94.9872 29.8733 94.0672 30.3C93.9872 33.34 93.9339 35.62 93.9072 37.14L95.5872 37.3C95.5872 37.6733 95.4739 38.0733 95.2472 38.5H90.6472L90.5872 37.8C91.2005 37.5867 91.8005 37.4267 92.3872 37.32C92.3739 36.36 92.3405 35.0067 92.2872 33.26C92.2339 31.5 92.2005 30.3467 92.1872 29.8C91.4539 29.76 90.8672 29.68 90.4272 29.56L90.5072 28.52C91.2272 28.32 92.2739 28.22 93.6472 28.22C93.8339 28.5533 93.9539 28.9 94.0072 29.26C94.5939 28.9533 95.1739 28.6867 95.7472 28.46C96.3205 28.22 96.6805 28.1 96.8272 28.1C98.3072 28.1 99.3405 28.5533 99.9272 29.46C100.541 29.1267 101.174 28.82 101.827 28.54C102.494 28.2467 102.894 28.1 103.027 28.1C104.241 28.1 105.147 28.4 105.747 29C106.361 29.5867 106.667 30.5533 106.667 31.9C106.667 32.3 106.614 34.0467 106.507 37.14L108.187 37.3C108.187 37.6733 108.074 38.0733 107.847 38.5H103.247L103.187 37.8C103.801 37.5867 104.401 37.4267 104.987 37.32C104.934 35.2133 104.887 33.62 104.847 32.54C104.807 31.46 104.654 30.7133 104.387 30.3C104.121 29.8733 103.587 29.66 102.787 29.66C101.987 29.66 101.154 29.8867 100.287 30.34ZM117.143 31.96L117.043 37.12C117.616 37.16 118.189 37.2533 118.763 37.4L118.723 38.1C118.509 38.2067 118.123 38.3267 117.563 38.46C117.016 38.58 116.476 38.64 115.943 38.64C115.703 38.16 115.569 37.7 115.543 37.26C114.023 38.26 112.956 38.76 112.343 38.76C111.396 38.76 110.636 38.5067 110.063 38C109.489 37.4933 109.203 36.7867 109.203 35.88C109.203 33.7867 110.483 32.7067 113.043 32.64C114.536 32.6 115.289 32.58 115.303 32.58L115.283 31.9C115.256 30.98 115.083 30.32 114.763 29.92C114.443 29.5067 113.869 29.3 113.043 29.3C112.696 29.3 112.323 29.38 111.923 29.54L111.443 31.54C111.376 31.5533 111.263 31.56 111.103 31.56L110.283 31.5C110.069 30.9267 109.956 30.1333 109.943 29.12C110.196 28.9867 110.776 28.7867 111.683 28.52C112.589 28.24 113.169 28.1 113.423 28.1C114.783 28.1 115.743 28.4 116.303 29C116.863 29.6 117.143 30.5867 117.143 31.96ZM112.783 37.4C113.169 37.4 114.063 36.9667 115.463 36.1L115.363 33.6C114.456 33.68 113.696 33.7533 113.083 33.82C112.469 33.8867 111.976 34.0667 111.603 34.36C111.229 34.64 111.043 35.0867 111.043 35.7C111.043 36.8333 111.623 37.4 112.783 37.4ZM126.024 29.78C125.957 29.7133 125.811 29.68 125.584 29.68C125.357 29.68 125.017 29.76 124.564 29.92C124.124 30.08 123.724 30.2667 123.364 30.48C123.284 33.44 123.231 35.66 123.204 37.14L124.884 37.3C124.884 37.6733 124.771 38.0733 124.544 38.5H119.944L119.884 37.8C120.497 37.5867 121.097 37.4267 121.684 37.32C121.604 33.9333 121.537 31.4267 121.484 29.8C120.751 29.76 120.164 29.68 119.724 29.56L119.804 28.52C120.511 28.32 121.557 28.22 122.944 28.22C123.157 28.5533 123.291 28.98 123.344 29.5C124.877 28.5667 125.791 28.1 126.084 28.1C126.377 28.1 126.717 28.16 127.104 28.28C127.491 28.3867 127.777 28.5067 127.964 28.64C127.964 29.9733 127.837 31.06 127.584 31.9C127.397 31.9533 127.177 31.98 126.924 31.98C126.684 31.98 126.517 31.9733 126.424 31.96L126.024 29.78ZM131.568 23.52C131.982 23.52 132.275 23.5333 132.448 23.56C132.448 23.9733 132.362 24.5067 132.188 25.16C132.108 28.68 132.068 31.34 132.068 33.14L135.288 29.7L133.688 29.54C133.688 29.1667 133.802 28.7667 134.028 28.34H139.108L139.168 29.22C138.862 29.34 138.302 29.4933 137.488 29.68L134.748 32.16L138.128 37.14L139.808 37.3C139.808 37.6733 139.695 38.0733 139.468 38.5H136.728L133.608 33.18L132.048 34.6C132.022 35.72 132.008 36.5667 132.008 37.14L133.688 37.3C133.688 37.6733 133.575 38.0733 133.348 38.5H128.748L128.688 37.8C129.302 37.5867 129.902 37.4267 130.488 37.32C130.408 31.9333 130.342 27.86 130.288 25.1C129.555 25.06 128.968 24.98 128.528 24.86L128.608 23.82C129.288 23.62 130.275 23.52 131.568 23.52ZM145.765 37.38C146.352 37.38 147.272 37.1 148.525 36.54C148.778 36.8867 148.912 37.1933 148.925 37.46C148.245 37.86 147.578 38.1733 146.925 38.4C146.272 38.6267 145.805 38.74 145.525 38.74C143.978 38.74 142.798 38.28 141.985 37.36C141.172 36.4267 140.765 35.1267 140.765 33.46C140.765 31.7933 141.158 30.4867 141.945 29.54C142.745 28.58 143.938 28.1 145.525 28.1C146.752 28.1 147.685 28.54 148.325 29.42C148.978 30.3 149.305 31.48 149.305 32.96C149.198 33.1467 149.112 33.2733 149.045 33.34L142.605 33.24C142.618 34.5867 142.852 35.6133 143.305 36.32C143.772 37.0267 144.592 37.38 145.765 37.38ZM147.485 32.1C147.485 31.22 147.325 30.54 147.005 30.06C146.685 29.5667 146.152 29.32 145.405 29.32C144.658 29.32 143.992 29.46 143.405 29.74C143.005 30.54 142.752 31.36 142.645 32.2C143.698 32.1867 145.312 32.1533 147.485 32.1ZM157.799 29.24L157.739 25.24C157.006 25.2 156.419 25.12 155.979 25L156.059 23.96C156.739 23.76 157.726 23.66 159.019 23.66C159.433 23.66 159.726 23.6733 159.899 23.7C159.899 23.94 159.859 24.26 159.779 24.66C159.713 25.0467 159.666 25.26 159.639 25.3L159.459 37.12C160.006 37.1467 160.586 37.24 161.199 37.4L161.159 38.1C160.239 38.5267 159.426 38.74 158.719 38.74C158.573 38.74 158.459 38.7333 158.379 38.72C158.273 38.52 158.139 38.06 157.979 37.34C156.446 38.2067 155.373 38.6733 154.759 38.74C153.479 38.74 152.519 38.2533 151.879 37.28C151.239 36.3067 150.919 35.06 150.919 33.54C150.919 32.0067 151.239 30.72 151.879 29.68C152.533 28.6267 153.493 28.1 154.759 28.1C155.746 28.1 156.759 28.48 157.799 29.24ZM155.099 29.46C153.539 29.46 152.759 30.74 152.759 33.3C152.759 34.3 152.919 35.1667 153.239 35.9C153.399 36.3 153.633 36.62 153.939 36.86C154.259 37.1 154.626 37.22 155.039 37.22C155.453 37.22 155.933 37.1267 156.479 36.94C157.039 36.7533 157.519 36.54 157.919 36.3L157.799 30.6C157.439 30.2933 156.999 30.0267 156.479 29.8C155.959 29.5733 155.499 29.46 155.099 29.46Z" fill="white"/>
<path fill-rule="evenodd" clip-rule="evenodd" d="M177 31.5L179.5 29L184.5 34L194.5 24L197 26.5L184.5 39L177 31.5Z" stroke="white" stroke-width="1.5" stroke-linecap="round" stroke-linejoin="round"/>
</svg>
