<svg width="323" height="63" viewBox="0 0 323 63" fill="none" xmlns="http://www.w3.org/2000/svg">
<rect width="323" height="63" rx="10" fill="#019A5A"/>
<path d="M29.72 37.16C31.7067 37.16 32.7 36.3533 32.7 34.74C32.7 33.9533 32.2133 33.2867 31.24 32.74C30.8 32.4867 30.3133 32.2467 29.78 32.02C29.26 31.7933 28.7333 31.5467 28.2 31.28C27.6667 31.0133 27.18 30.7267 26.74 30.42C26.3133 30.1133 25.96 29.7267 25.68 29.26C25.4133 28.7933 25.28 28.2667 25.28 27.68C25.28 26.72 25.6667 25.9067 26.44 25.24C27.2267 24.56 28.3 24.22 29.66 24.22C31.02 24.22 32.4533 24.6333 33.96 25.46C33.96 26.22 33.8667 27.1733 33.68 28.32C33.3867 28.36 33 28.38 32.52 28.38L31.92 26.06C31.76 25.98 31.44 25.9 30.96 25.82C30.4933 25.74 30.08 25.7 29.72 25.7C28.9467 25.7 28.3467 25.8667 27.92 26.2C27.4933 26.52 27.28 26.9733 27.28 27.56C27.28 28.1333 27.5267 28.6533 28.02 29.12C28.5267 29.5733 29.1333 29.9667 29.84 30.3C30.56 30.62 31.2733 30.9533 31.98 31.3C32.7 31.6467 33.3067 32.1 33.8 32.66C34.3067 33.2067 34.56 33.8467 34.56 34.58C34.56 35.9133 34.1133 36.9467 33.22 37.68C32.3267 38.4 31.16 38.76 29.72 38.76C28.9333 38.76 28.08 38.64 27.16 38.4C26.2533 38.1467 25.5 37.8267 24.9 37.44C24.9267 36.5467 25.0267 35.5133 25.2 34.34C25.4933 34.3 25.88 34.28 26.36 34.28L26.78 36.68C27.0733 36.8 27.5133 36.9133 28.1 37.02C28.7 37.1133 29.24 37.16 29.72 37.16ZM38.9848 23.64C39.3982 23.64 39.6915 23.6533 39.8648 23.68C39.8648 23.92 39.8248 24.2333 39.7448 24.62C39.6782 24.9933 39.6315 25.2133 39.6048 25.28C39.6048 25.5733 39.5915 26.18 39.5648 27.1C39.5382 28.02 39.5248 28.7333 39.5248 29.24C40.0982 28.9333 40.6648 28.6667 41.2248 28.44C41.7982 28.2133 42.1582 28.1 42.3048 28.1C43.5848 28.1 44.5115 28.42 45.0848 29.06C45.6582 29.6867 45.9448 30.6467 45.9448 31.94C45.9448 32.3133 45.8915 34.0467 45.7848 37.14L47.4648 37.3C47.4648 37.6733 47.3515 38.0733 47.1248 38.5H42.5248L42.4648 37.8C43.0782 37.5867 43.6782 37.4267 44.2648 37.32C44.1848 33.8267 44.1115 31.8867 44.0448 31.5C43.9915 31.1 43.8982 30.7533 43.7648 30.46C43.6315 30.1667 43.4315 29.96 43.1648 29.84C42.8982 29.72 42.5448 29.66 42.1048 29.66C41.1982 29.66 40.3315 29.8733 39.5048 30.3L39.3848 37.14L41.0648 37.3C41.0648 37.6733 40.9515 38.0733 40.7248 38.5H36.1248L36.0648 37.8C36.6782 37.5867 37.2782 37.4267 37.8648 37.32L37.6248 25.22C36.8915 25.18 36.3048 25.1 35.8648 24.98L35.9448 23.94C36.6248 23.74 37.6382 23.64 38.9848 23.64ZM56.5686 31.96L56.4686 37.12C57.0419 37.16 57.6153 37.2533 58.1886 37.4L58.1486 38.1C57.9353 38.2067 57.5486 38.3267 56.9886 38.46C56.4419 38.58 55.9019 38.64 55.3686 38.64C55.1286 38.16 54.9953 37.7 54.9686 37.26C53.4486 38.26 52.3819 38.76 51.7686 38.76C50.8219 38.76 50.0619 38.5067 49.4886 38C48.9153 37.4933 48.6286 36.7867 48.6286 35.88C48.6286 33.7867 49.9086 32.7067 52.4686 32.64C53.9619 32.6 54.7153 32.58 54.7286 32.58L54.7086 31.9C54.6819 30.98 54.5086 30.32 54.1886 29.92C53.8686 29.5067 53.2953 29.3 52.4686 29.3C52.1219 29.3 51.7486 29.38 51.3486 29.54L50.8686 31.54C50.8019 31.5533 50.6886 31.56 50.5286 31.56L49.7086 31.5C49.4953 30.9267 49.3819 30.1333 49.3686 29.12C49.6219 28.9867 50.2019 28.7867 51.1086 28.52C52.0153 28.24 52.5953 28.1 52.8486 28.1C54.2086 28.1 55.1686 28.4 55.7286 29C56.2886 29.6 56.5686 30.5867 56.5686 31.96ZM52.2086 37.4C52.5953 37.4 53.4886 36.9667 54.8886 36.1L54.7886 33.6C53.8819 33.68 53.1219 33.7533 52.5086 33.82C51.8953 33.8867 51.4019 34.0667 51.0286 34.36C50.6553 34.64 50.4686 35.0867 50.4686 35.7C50.4686 36.8333 51.0486 37.4 52.2086 37.4ZM65.4498 29.78C65.3832 29.7133 65.2365 29.68 65.0098 29.68C64.7832 29.68 64.4432 29.76 63.9898 29.92C63.5498 30.08 63.1498 30.2667 62.7898 30.48C62.7098 33.44 62.6565 35.66 62.6298 37.14L64.3098 37.3C64.3098 37.6733 64.1965 38.0733 63.9698 38.5H59.3698L59.3098 37.8C59.9232 37.5867 60.5232 37.4267 61.1098 37.32C61.0298 33.9333 60.9632 31.4267 60.9098 29.8C60.1765 29.76 59.5898 29.68 59.1498 29.56L59.2298 28.52C59.9365 28.32 60.9832 28.22 62.3698 28.22C62.5832 28.5533 62.7165 28.98 62.7698 29.5C64.3032 28.5667 65.2165 28.1 65.5098 28.1C65.8032 28.1 66.1432 28.16 66.5298 28.28C66.9165 28.3867 67.2032 28.5067 67.3898 28.64C67.3898 29.9733 67.2632 31.06 67.0098 31.9C66.8232 31.9533 66.6032 31.98 66.3498 31.98C66.1098 31.98 65.9432 31.9733 65.8498 31.96L65.4498 29.78ZM73.3742 37.38C73.9609 37.38 74.8809 37.1 76.1342 36.54C76.3876 36.8867 76.5209 37.1933 76.5342 37.46C75.8542 37.86 75.1876 38.1733 74.5342 38.4C73.8809 38.6267 73.4142 38.74 73.1342 38.74C71.5876 38.74 70.4076 38.28 69.5942 37.36C68.7809 36.4267 68.3742 35.1267 68.3742 33.46C68.3742 31.7933 68.7676 30.4867 69.5542 29.54C70.3542 28.58 71.5476 28.1 73.1342 28.1C74.3609 28.1 75.2942 28.54 75.9342 29.42C76.5876 30.3 76.9142 31.48 76.9142 32.96C76.8076 33.1467 76.7209 33.2733 76.6542 33.34L70.2142 33.24C70.2276 34.5867 70.4609 35.6133 70.9142 36.32C71.3809 37.0267 72.2009 37.38 73.3742 37.38ZM75.0942 32.1C75.0942 31.22 74.9342 30.54 74.6142 30.06C74.2942 29.5667 73.7609 29.32 73.0142 29.32C72.2676 29.32 71.6009 29.46 71.0142 29.74C70.6142 30.54 70.3609 31.36 70.2542 32.2C71.3076 32.1867 72.9209 32.1533 75.0942 32.1ZM87.3239 26.44C86.9772 26.52 86.6372 26.56 86.3039 26.56C85.9839 26.56 85.6639 26.54 85.3439 26.5C85.2639 26.1267 85.2239 25.7533 85.2239 25.38C85.2239 24.9933 85.2372 24.7067 85.2639 24.52C85.5572 24.4533 85.8639 24.42 86.1839 24.42C86.5172 24.42 86.8706 24.4333 87.2439 24.46C87.3239 24.8067 87.3639 25.1467 87.3639 25.48C87.3639 25.8 87.3506 26.12 87.3239 26.44ZM83.6839 28.54C84.8172 28.34 85.6972 28.24 86.3239 28.24C86.9506 28.24 87.3506 28.2533 87.5239 28.28C87.5239 28.6 87.4839 28.9533 87.4039 29.34C87.3239 29.7267 87.2772 29.9133 87.2639 29.9L87.0839 37.14L88.7639 37.3C88.7639 37.6733 88.6506 38.0733 88.4239 38.5H83.8239L83.7639 37.8C84.3772 37.5867 84.9772 37.4267 85.5639 37.32C85.4839 33.9867 85.4172 31.4867 85.3639 29.82C84.5906 29.82 84.0039 29.74 83.6039 29.58L83.6839 28.54ZM91.3563 37.26L91.1963 29.72H89.6563L89.5963 29.02C89.7296 28.9267 90.1163 28.7533 90.7563 28.5L92.3963 25.94C92.6629 25.9667 92.8696 26.0333 93.0163 26.14L92.9963 28.34C93.9963 28.34 94.8163 28.4067 95.4563 28.54C95.4563 28.9 95.3429 29.2933 95.1163 29.72H92.9563C92.9296 31.32 92.9029 33.7467 92.8763 37C93.6229 37.04 94.3696 37.1733 95.1163 37.4L95.0963 38.1C94.9096 38.22 94.4296 38.36 93.6563 38.52C92.8963 38.68 92.2696 38.76 91.7763 38.76C91.7096 38.6533 91.6229 38.4267 91.5163 38.08C91.4096 37.72 91.3563 37.4467 91.3563 37.26ZM103.505 37.26L103.345 29.72H101.805L101.745 29.02C101.878 28.9267 102.265 28.7533 102.905 28.5L104.545 25.94C104.811 25.9667 105.018 26.0333 105.165 26.14L105.145 28.34C106.145 28.34 106.965 28.4067 107.605 28.54C107.605 28.9 107.491 29.2933 107.265 29.72H105.105C105.078 31.32 105.051 33.7467 105.025 37C105.771 37.04 106.518 37.1733 107.265 37.4L107.245 38.1C107.058 38.22 106.578 38.36 105.805 38.52C105.045 38.68 104.418 38.76 103.925 38.76C103.858 38.6533 103.771 38.4267 103.665 38.08C103.558 37.72 103.505 37.4467 103.505 37.26ZM113.598 37.54C114.718 37.54 115.471 37.1933 115.858 36.5C116.258 35.7933 116.458 34.7933 116.458 33.5C116.458 31.4467 116.004 30.16 115.098 29.64C114.724 29.4267 114.198 29.32 113.518 29.32C112.851 29.32 112.218 29.46 111.618 29.74C111.084 30.7667 110.818 31.96 110.818 33.32C110.818 34.6267 110.991 35.6333 111.338 36.34C111.738 37.14 112.491 37.54 113.598 37.54ZM108.978 33.5C108.978 31.8067 109.364 30.4867 110.138 29.54C110.911 28.58 112.104 28.1 113.718 28.1C115.331 28.1 116.498 28.54 117.218 29.42C117.938 30.2867 118.298 31.5733 118.298 33.28C118.298 34.9867 117.911 36.3267 117.138 37.3C116.378 38.2733 115.218 38.76 113.658 38.76C112.098 38.76 110.924 38.3067 110.138 37.4C109.364 36.4933 108.978 35.1933 108.978 33.5ZM134.75 37.54C135.87 37.54 136.623 37.1933 137.01 36.5C137.41 35.7933 137.61 34.7933 137.61 33.5C137.61 31.4467 137.157 30.16 136.25 29.64C135.877 29.4267 135.35 29.32 134.67 29.32C134.003 29.32 133.37 29.46 132.77 29.74C132.237 30.7667 131.97 31.96 131.97 33.32C131.97 34.6267 132.143 35.6333 132.49 36.34C132.89 37.14 133.643 37.54 134.75 37.54ZM130.13 33.5C130.13 31.8067 130.517 30.4867 131.29 29.54C132.063 28.58 133.257 28.1 134.87 28.1C136.483 28.1 137.65 28.54 138.37 29.42C139.09 30.2867 139.45 31.5733 139.45 33.28C139.45 34.9867 139.063 36.3267 138.29 37.3C137.53 38.2733 136.37 38.76 134.81 38.76C133.25 38.76 132.077 38.3067 131.29 37.4C130.517 36.4933 130.13 35.1933 130.13 33.5ZM142.372 37.26L142.212 29.72H140.672L140.612 29.02C140.745 28.9267 141.132 28.7533 141.772 28.5L143.412 25.94C143.679 25.9667 143.885 26.0333 144.032 26.14L144.012 28.34C145.012 28.34 145.832 28.4067 146.472 28.54C146.472 28.9 146.359 29.2933 146.132 29.72H143.972C143.945 31.32 143.919 33.7467 143.892 37C144.639 37.04 145.385 37.1733 146.132 37.4L146.112 38.1C145.925 38.22 145.445 38.36 144.672 38.52C143.912 38.68 143.285 38.76 142.792 38.76C142.725 38.6533 142.639 38.4267 142.532 38.08C142.425 37.72 142.372 37.4467 142.372 37.26ZM150.645 23.64C151.058 23.64 151.352 23.6533 151.525 23.68C151.525 23.92 151.485 24.2333 151.405 24.62C151.338 24.9933 151.292 25.2133 151.265 25.28C151.265 25.5733 151.252 26.18 151.225 27.1C151.198 28.02 151.185 28.7333 151.185 29.24C151.758 28.9333 152.325 28.6667 152.885 28.44C153.458 28.2133 153.818 28.1 153.965 28.1C155.245 28.1 156.172 28.42 156.745 29.06C157.318 29.6867 157.605 30.6467 157.605 31.94C157.605 32.3133 157.552 34.0467 157.445 37.14L159.125 37.3C159.125 37.6733 159.012 38.0733 158.785 38.5H154.185L154.125 37.8C154.738 37.5867 155.338 37.4267 155.925 37.32C155.845 33.8267 155.772 31.8867 155.705 31.5C155.652 31.1 155.558 30.7533 155.425 30.46C155.292 30.1667 155.092 29.96 154.825 29.84C154.558 29.72 154.205 29.66 153.765 29.66C152.858 29.66 151.992 29.8733 151.165 30.3L151.045 37.14L152.725 37.3C152.725 37.6733 152.612 38.0733 152.385 38.5H147.785L147.725 37.8C148.338 37.5867 148.938 37.4267 149.525 37.32L149.285 25.22C148.552 25.18 147.965 25.1 147.525 24.98L147.605 23.94C148.285 23.74 149.298 23.64 150.645 23.64ZM165.269 37.38C165.855 37.38 166.775 37.1 168.029 36.54C168.282 36.8867 168.415 37.1933 168.429 37.46C167.749 37.86 167.082 38.1733 166.429 38.4C165.775 38.6267 165.309 38.74 165.029 38.74C163.482 38.74 162.302 38.28 161.489 37.36C160.675 36.4267 160.269 35.1267 160.269 33.46C160.269 31.7933 160.662 30.4867 161.449 29.54C162.249 28.58 163.442 28.1 165.029 28.1C166.255 28.1 167.189 28.54 167.829 29.42C168.482 30.3 168.809 31.48 168.809 32.96C168.702 33.1467 168.615 33.2733 168.549 33.34L162.109 33.24C162.122 34.5867 162.355 35.6133 162.809 36.32C163.275 37.0267 164.095 37.38 165.269 37.38ZM166.989 32.1C166.989 31.22 166.829 30.54 166.509 30.06C166.189 29.5667 165.655 29.32 164.909 29.32C164.162 29.32 163.495 29.46 162.909 29.74C162.509 30.54 162.255 31.36 162.149 32.2C163.202 32.1867 164.815 32.1533 166.989 32.1ZM176.563 29.78C176.496 29.7133 176.35 29.68 176.123 29.68C175.896 29.68 175.556 29.76 175.103 29.92C174.663 30.08 174.263 30.2667 173.903 30.48C173.823 33.44 173.77 35.66 173.743 37.14L175.423 37.3C175.423 37.6733 175.31 38.0733 175.083 38.5H170.483L170.423 37.8C171.036 37.5867 171.636 37.4267 172.223 37.32C172.143 33.9333 172.076 31.4267 172.023 29.8C171.29 29.76 170.703 29.68 170.263 29.56L170.343 28.52C171.05 28.32 172.096 28.22 173.483 28.22C173.696 28.5533 173.83 28.98 173.883 29.5C175.416 28.5667 176.33 28.1 176.623 28.1C176.916 28.1 177.256 28.16 177.643 28.28C178.03 28.3867 178.316 28.5067 178.503 28.64C178.503 29.9733 178.376 31.06 178.123 31.9C177.936 31.9533 177.716 31.98 177.463 31.98C177.223 31.98 177.056 31.9733 176.963 31.96L176.563 29.78ZM186.263 37.22C186.729 37.42 187.296 37.52 187.963 37.52C188.643 37.52 189.176 37.3933 189.563 37.14C189.949 36.8867 190.143 36.54 190.143 36.1C190.143 35.66 189.963 35.2933 189.603 35C189.243 34.7067 188.803 34.4467 188.283 34.22C187.763 33.9933 187.243 33.7533 186.723 33.5C186.203 33.2467 185.763 32.9133 185.403 32.5C185.043 32.0867 184.863 31.6067 184.863 31.06C184.863 30.14 185.169 29.42 185.783 28.9C186.396 28.3667 187.243 28.1 188.323 28.1C189.416 28.1 190.443 28.3467 191.403 28.84C191.416 28.9733 191.423 29.3333 191.423 29.92C191.423 30.4933 191.363 30.9867 191.243 31.4C190.923 31.5067 190.543 31.56 190.103 31.56L189.443 29.52C189.149 29.3733 188.749 29.3 188.243 29.3C187.749 29.3 187.356 29.4333 187.063 29.7C186.769 29.9533 186.623 30.28 186.623 30.68C186.623 31.0667 186.803 31.4067 187.163 31.7C187.536 31.9933 187.983 32.26 188.503 32.5C189.023 32.7267 189.543 32.9733 190.063 33.24C190.583 33.4933 191.023 33.8333 191.383 34.26C191.756 34.6733 191.943 35.1533 191.943 35.7C191.943 36.66 191.569 37.4133 190.823 37.96C190.089 38.4933 189.183 38.76 188.103 38.76C187.516 38.76 186.889 38.6667 186.223 38.48C185.556 38.28 184.996 38.0267 184.543 37.72C184.543 36.8267 184.623 36.0333 184.783 35.34C185.089 35.2867 185.503 35.26 186.023 35.26L186.263 37.22ZM195.126 37.26L194.966 29.72H193.426L193.366 29.02C193.499 28.9267 193.886 28.7533 194.526 28.5L196.166 25.94C196.432 25.9667 196.639 26.0333 196.786 26.14L196.766 28.34C197.766 28.34 198.586 28.4067 199.226 28.54C199.226 28.9 199.112 29.2933 198.886 29.72H196.726C196.699 31.32 196.672 33.7467 196.646 37C197.392 37.04 198.139 37.1733 198.886 37.4L198.866 38.1C198.679 38.22 198.199 38.36 197.426 38.52C196.666 38.68 196.039 38.76 195.546 38.76C195.479 38.6533 195.392 38.4267 195.286 38.08C195.179 37.72 195.126 37.4467 195.126 37.26ZM205.759 37.18C206.146 37.18 206.579 37.1 207.059 36.94C207.539 36.7667 207.932 36.56 208.239 36.32C208.186 33.48 208.139 31.3267 208.099 29.86C207.272 29.86 206.659 29.78 206.259 29.62L206.339 28.58C207.472 28.38 208.359 28.28 208.999 28.28C209.652 28.28 210.066 28.2933 210.239 28.32C210.239 28.56 210.199 28.88 210.119 29.28C210.052 29.68 210.006 29.9 209.979 29.94L209.739 37.08C210.446 37.12 211.019 37.2 211.459 37.32L211.419 38.34C210.832 38.5267 210.266 38.62 209.719 38.62C209.172 38.62 208.839 38.6133 208.719 38.6C208.466 38.0933 208.319 37.6267 208.279 37.2C207.626 37.6933 207.019 38.0733 206.459 38.34C205.912 38.6067 205.552 38.74 205.379 38.74C204.206 38.74 203.352 38.4267 202.819 37.8C202.299 37.16 202.039 36.2267 202.039 35C202.039 34.9867 202.099 33.28 202.219 29.88C201.446 29.88 200.732 29.7933 200.079 29.62L200.159 28.58C201.292 28.38 202.172 28.28 202.799 28.28C203.426 28.28 203.826 28.2933 203.999 28.32C203.999 28.64 203.959 28.9933 203.879 29.38C203.799 29.7667 203.752 29.9533 203.739 29.94L203.759 34.26C203.759 35.2733 203.886 36.0133 204.139 36.48C204.392 36.9467 204.932 37.18 205.759 37.18ZM219.373 29.24L219.313 25.24C218.58 25.2 217.993 25.12 217.553 25L217.633 23.96C218.313 23.76 219.3 23.66 220.593 23.66C221.007 23.66 221.3 23.6733 221.473 23.7C221.473 23.94 221.433 24.26 221.353 24.66C221.287 25.0467 221.24 25.26 221.213 25.3L221.033 37.12C221.58 37.1467 222.16 37.24 222.773 37.4L222.733 38.1C221.813 38.5267 221 38.74 220.293 38.74C220.147 38.74 220.033 38.7333 219.953 38.72C219.847 38.52 219.713 38.06 219.553 37.34C218.02 38.2067 216.947 38.6733 216.333 38.74C215.053 38.74 214.093 38.2533 213.453 37.28C212.813 36.3067 212.493 35.06 212.493 33.54C212.493 32.0067 212.813 30.72 213.453 29.68C214.107 28.6267 215.067 28.1 216.333 28.1C217.32 28.1 218.333 28.48 219.373 29.24ZM216.673 29.46C215.113 29.46 214.333 30.74 214.333 33.3C214.333 34.3 214.493 35.1667 214.813 35.9C214.973 36.3 215.207 36.62 215.513 36.86C215.833 37.1 216.2 37.22 216.613 37.22C217.027 37.22 217.507 37.1267 218.053 36.94C218.613 36.7533 219.093 36.54 219.493 36.3L219.373 30.6C219.013 30.2933 218.573 30.0267 218.053 29.8C217.533 29.5733 217.073 29.46 216.673 29.46ZM228.882 37.38C229.469 37.38 230.389 37.1 231.642 36.54C231.895 36.8867 232.029 37.1933 232.042 37.46C231.362 37.86 230.695 38.1733 230.042 38.4C229.389 38.6267 228.922 38.74 228.642 38.74C227.095 38.74 225.915 38.28 225.102 37.36C224.289 36.4267 223.882 35.1267 223.882 33.46C223.882 31.7933 224.275 30.4867 225.062 29.54C225.862 28.58 227.055 28.1 228.642 28.1C229.869 28.1 230.802 28.54 231.442 29.42C232.095 30.3 232.422 31.48 232.422 32.96C232.315 33.1467 232.229 33.2733 232.162 33.34L225.722 33.24C225.735 34.5867 225.969 35.6133 226.422 36.32C226.889 37.0267 227.709 37.38 228.882 37.38ZM230.602 32.1C230.602 31.22 230.442 30.54 230.122 30.06C229.802 29.5667 229.269 29.32 228.522 29.32C227.775 29.32 227.109 29.46 226.522 29.74C226.122 30.54 225.869 31.36 225.762 32.2C226.815 32.1867 228.429 32.1533 230.602 32.1ZM240.276 28.1C241.556 28.1 242.483 28.42 243.056 29.06C243.63 29.6867 243.916 30.6467 243.916 31.94C243.916 32.3133 243.863 34.0467 243.756 37.14L245.436 37.3C245.436 37.6733 245.323 38.0733 245.096 38.5H240.496L240.436 37.8C241.05 37.5867 241.65 37.4267 242.236 37.32C242.156 33.8267 242.083 31.8867 242.016 31.5C241.963 31.1 241.87 30.7533 241.736 30.46C241.603 30.1667 241.403 29.96 241.136 29.84C240.87 29.72 240.516 29.66 240.076 29.66C239.196 29.66 238.343 29.8733 237.516 30.3C237.436 33.34 237.383 35.62 237.356 37.14L239.036 37.3C239.036 37.6733 238.923 38.0733 238.696 38.5H234.096L234.036 37.8C234.65 37.5867 235.25 37.4267 235.836 37.32C235.756 33.9333 235.69 31.4267 235.636 29.8C234.903 29.76 234.316 29.68 233.876 29.56L233.956 28.52C234.676 28.32 235.723 28.22 237.096 28.22C237.256 28.46 237.376 28.8067 237.456 29.26C238.03 28.9533 238.603 28.6867 239.176 28.46C239.763 28.22 240.13 28.1 240.276 28.1ZM247.841 37.26L247.681 29.72H246.141L246.081 29.02C246.214 28.9267 246.601 28.7533 247.241 28.5L248.881 25.94C249.147 25.9667 249.354 26.0333 249.501 26.14L249.481 28.34C250.481 28.34 251.301 28.4067 251.941 28.54C251.941 28.9 251.827 29.2933 251.601 29.72H249.441C249.414 31.32 249.387 33.7467 249.361 37C250.107 37.04 250.854 37.1733 251.601 37.4L251.581 38.1C251.394 38.22 250.914 38.36 250.141 38.52C249.381 38.68 248.754 38.76 248.261 38.76C248.194 38.6533 248.107 38.4267 248.001 38.08C247.894 37.72 247.841 37.4467 247.841 37.26ZM254.974 37.22C255.44 37.42 256.007 37.52 256.674 37.52C257.354 37.52 257.887 37.3933 258.274 37.14C258.66 36.8867 258.854 36.54 258.854 36.1C258.854 35.66 258.674 35.2933 258.314 35C257.954 34.7067 257.514 34.4467 256.994 34.22C256.474 33.9933 255.954 33.7533 255.434 33.5C254.914 33.2467 254.474 32.9133 254.114 32.5C253.754 32.0867 253.574 31.6067 253.574 31.06C253.574 30.14 253.88 29.42 254.494 28.9C255.107 28.3667 255.954 28.1 257.034 28.1C258.127 28.1 259.154 28.3467 260.114 28.84C260.127 28.9733 260.134 29.3333 260.134 29.92C260.134 30.4933 260.074 30.9867 259.954 31.4C259.634 31.5067 259.254 31.56 258.814 31.56L258.154 29.52C257.86 29.3733 257.46 29.3 256.954 29.3C256.46 29.3 256.067 29.4333 255.774 29.7C255.48 29.9533 255.334 30.28 255.334 30.68C255.334 31.0667 255.514 31.4067 255.874 31.7C256.247 31.9933 256.694 32.26 257.214 32.5C257.734 32.7267 258.254 32.9733 258.774 33.24C259.294 33.4933 259.734 33.8333 260.094 34.26C260.467 34.6733 260.654 35.1533 260.654 35.7C260.654 36.66 260.28 37.4133 259.534 37.96C258.8 38.4933 257.894 38.76 256.814 38.76C256.227 38.76 255.6 38.6667 254.934 38.48C254.267 38.28 253.707 38.0267 253.254 37.72C253.254 36.8267 253.334 36.0333 253.494 35.34C253.8 35.2867 254.214 35.26 254.734 35.26L254.974 37.22Z" fill="white"/>
<path d="M289 22.5H296V29.5" stroke="white" stroke-width="1.5" stroke-linecap="round" stroke-linejoin="round"/>
<path d="M296 34.2368V39C296 39.8285 295.328 40.5 294.5 40.5H279.5C278.672 40.5 278 39.8285 278 39V24C278 23.1716 278.672 22.5 279.5 22.5H284" stroke="white" stroke-width="1.5" stroke-linecap="round" stroke-linejoin="round"/>
<path d="M287.9 30.6L295.55 22.95" stroke="white" stroke-width="1.5" stroke-linecap="round" stroke-linejoin="round"/>
</svg>
