<svg width="361" height="63" viewBox="0 0 361 63" fill="none" xmlns="http://www.w3.org/2000/svg">
<rect width="361" height="63" rx="10" fill="#019A5A"/>
<path d="M38.28 25.74C38.2133 27.98 38.14 31.78 38.06 37.14L39.74 37.3C39.74 37.6733 39.6267 38.0733 39.4 38.5H34.8L34.74 37.8C35.5133 37.52 36.1267 37.36 36.58 37.32C36.4467 32.1733 36.34 28.3133 36.26 25.74H33.34L32.86 27.78L31.7 27.7C31.5 26.8867 31.4 26.06 31.4 25.22C31.4 25.06 31.4133 24.82 31.44 24.5H42.96C42.9867 24.6733 43 24.94 43 25.3C43 26.02 42.9067 26.8067 42.72 27.66C42.4267 27.74 42.04 27.78 41.56 27.78L41.06 25.74H38.28ZM51.4788 31.96L51.3788 37.12C51.9521 37.16 52.5254 37.2533 53.0988 37.4L53.0588 38.1C52.8454 38.2067 52.4588 38.3267 51.8988 38.46C51.3521 38.58 50.8121 38.64 50.2788 38.64C50.0388 38.16 49.9054 37.7 49.8788 37.26C48.3588 38.26 47.2921 38.76 46.6788 38.76C45.7321 38.76 44.9721 38.5067 44.3988 38C43.8254 37.4933 43.5388 36.7867 43.5388 35.88C43.5388 33.7867 44.8188 32.7067 47.3788 32.64C48.8721 32.6 49.6254 32.58 49.6388 32.58L49.6188 31.9C49.5921 30.98 49.4188 30.32 49.0988 29.92C48.7788 29.5067 48.2054 29.3 47.3788 29.3C47.0321 29.3 46.6588 29.38 46.2588 29.54L45.7788 31.54C45.7121 31.5533 45.5988 31.56 45.4388 31.56L44.6188 31.5C44.4054 30.9267 44.2921 30.1333 44.2788 29.12C44.5321 28.9867 45.1121 28.7867 46.0188 28.52C46.9254 28.24 47.5054 28.1 47.7588 28.1C49.1188 28.1 50.0788 28.4 50.6388 29C51.1988 29.6 51.4788 30.5867 51.4788 31.96ZM47.1188 37.4C47.5054 37.4 48.3988 36.9667 49.7988 36.1L49.6988 33.6C48.7921 33.68 48.0321 33.7533 47.4188 33.82C46.8054 33.8867 46.3121 34.0667 45.9388 34.36C45.5654 34.64 45.3788 35.0867 45.3788 35.7C45.3788 36.8333 45.9588 37.4 47.1188 37.4ZM57.82 26.44C57.4733 26.52 57.1333 26.56 56.8 26.56C56.48 26.56 56.16 26.54 55.84 26.5C55.76 26.1267 55.72 25.7533 55.72 25.38C55.72 24.9933 55.7333 24.7067 55.76 24.52C56.0533 24.4533 56.36 24.42 56.68 24.42C57.0133 24.42 57.3667 24.4333 57.74 24.46C57.82 24.8067 57.86 25.1467 57.86 25.48C57.86 25.8 57.8467 26.12 57.82 26.44ZM54.18 28.54C55.3133 28.34 56.1933 28.24 56.82 28.24C57.4467 28.24 57.8467 28.2533 58.02 28.28C58.02 28.6 57.98 28.9533 57.9 29.34C57.82 29.7267 57.7733 29.9133 57.76 29.9L57.58 37.14L59.26 37.3C59.26 37.6733 59.1467 38.0733 58.92 38.5H54.32L54.26 37.8C54.8733 37.5867 55.4733 37.4267 56.06 37.32C55.98 33.9867 55.9133 31.4867 55.86 29.82C55.0867 29.82 54.5 29.74 54.1 29.58L54.18 28.54ZM63.0723 23.64C63.4857 23.64 63.779 23.6533 63.9523 23.68C63.9523 24.1467 63.8657 24.68 63.6923 25.28C63.5723 33.1467 63.5123 37.1 63.5123 37.14L65.1923 37.3C65.1923 37.6733 65.079 38.0733 64.8523 38.5H60.2523L60.1923 37.8C60.8057 37.5867 61.4057 37.4267 61.9923 37.32L61.7923 25.22C61.059 25.18 60.4723 25.1 60.0323 24.98L60.1123 23.94C60.7923 23.74 61.779 23.64 63.0723 23.64ZM70.8908 37.54C72.0108 37.54 72.7641 37.1933 73.1508 36.5C73.5508 35.7933 73.7508 34.7933 73.7508 33.5C73.7508 31.4467 73.2974 30.16 72.3908 29.64C72.0174 29.4267 71.4908 29.32 70.8108 29.32C70.1441 29.32 69.5108 29.46 68.9108 29.74C68.3774 30.7667 68.1108 31.96 68.1108 33.32C68.1108 34.6267 68.2841 35.6333 68.6308 36.34C69.0308 37.14 69.7841 37.54 70.8908 37.54ZM66.2708 33.5C66.2708 31.8067 66.6574 30.4867 67.4308 29.54C68.2041 28.58 69.3974 28.1 71.0108 28.1C72.6241 28.1 73.7908 28.54 74.5108 29.42C75.2308 30.2867 75.5908 31.5733 75.5908 33.28C75.5908 34.9867 75.2041 36.3267 74.4308 37.3C73.6708 38.2733 72.5108 38.76 70.9508 38.76C69.3908 38.76 68.2174 38.3067 67.4308 37.4C66.6574 36.4933 66.2708 35.1933 66.2708 33.5ZM83.1725 29.78C83.1058 29.7133 82.9592 29.68 82.7325 29.68C82.5058 29.68 82.1658 29.76 81.7125 29.92C81.2725 30.08 80.8725 30.2667 80.5125 30.48C80.4325 33.44 80.3792 35.66 80.3525 37.14L82.0325 37.3C82.0325 37.6733 81.9192 38.0733 81.6925 38.5H77.0925L77.0325 37.8C77.6458 37.5867 78.2458 37.4267 78.8325 37.32C78.7525 33.9333 78.6858 31.4267 78.6325 29.8C77.8992 29.76 77.3125 29.68 76.8725 29.56L76.9525 28.52C77.6592 28.32 78.7058 28.22 80.0925 28.22C80.3058 28.5533 80.4392 28.98 80.4925 29.5C82.0258 28.5667 82.9392 28.1 83.2325 28.1C83.5258 28.1 83.8658 28.16 84.2525 28.28C84.6392 28.3867 84.9258 28.5067 85.1125 28.64C85.1125 29.9733 84.9858 31.06 84.7325 31.9C84.5458 31.9533 84.3258 31.98 84.0725 31.98C83.8325 31.98 83.6658 31.9733 83.5725 31.96L83.1725 29.78ZM95.0522 38.74C93.7722 38.74 92.8122 38.2533 92.1722 37.28C91.5322 36.3067 91.2122 35.06 91.2122 33.54C91.2122 32.0067 91.5322 30.72 92.1722 29.68C92.8255 28.6267 93.7855 28.1 95.0522 28.1C96.0522 28.1 97.0855 28.4867 98.1522 29.26C98.2989 28.9133 98.4722 28.5667 98.6722 28.22C99.1922 28.22 99.7589 28.3 100.372 28.46C100.986 28.62 101.412 28.76 101.652 28.88C101.679 29.0267 101.692 29.26 101.692 29.58C101.052 29.7533 100.492 29.8533 100.012 29.88L99.7922 41.72L101.472 41.88C101.472 42.2533 101.359 42.6533 101.132 43.08H96.3922L96.3322 42.44C97.0389 42.1867 97.6855 42.0067 98.2722 41.9C98.2455 39.9 98.2189 38.4 98.1922 37.4C96.6722 38.2267 95.6255 38.6733 95.0522 38.74ZM93.5322 35.9C93.6922 36.3 93.9255 36.62 94.2322 36.86C94.5522 37.1 94.9122 37.22 95.3122 37.22C95.7255 37.22 96.2055 37.1333 96.7522 36.96C97.3122 36.7733 97.7922 36.56 98.1922 36.32C98.1789 35.0267 98.1455 33.12 98.0922 30.6C97.7322 30.2933 97.2922 30.0267 96.7722 29.8C96.2522 29.5733 95.7922 29.46 95.3922 29.46C93.8322 29.46 93.0522 30.74 93.0522 33.3C93.0522 34.3 93.2122 35.1667 93.5322 35.9ZM107.876 37.18C108.263 37.18 108.696 37.1 109.176 36.94C109.656 36.7667 110.049 36.56 110.356 36.32C110.303 33.48 110.256 31.3267 110.216 29.86C109.389 29.86 108.776 29.78 108.376 29.62L108.456 28.58C109.589 28.38 110.476 28.28 111.116 28.28C111.769 28.28 112.183 28.2933 112.356 28.32C112.356 28.56 112.316 28.88 112.236 29.28C112.169 29.68 112.123 29.9 112.096 29.94L111.856 37.08C112.563 37.12 113.136 37.2 113.576 37.32L113.536 38.34C112.949 38.5267 112.383 38.62 111.836 38.62C111.289 38.62 110.956 38.6133 110.836 38.6C110.583 38.0933 110.436 37.6267 110.396 37.2C109.743 37.6933 109.136 38.0733 108.576 38.34C108.029 38.6067 107.669 38.74 107.496 38.74C106.323 38.74 105.469 38.4267 104.936 37.8C104.416 37.16 104.156 36.2267 104.156 35C104.156 34.9867 104.216 33.28 104.336 29.88C103.563 29.88 102.849 29.7933 102.196 29.62L102.276 28.58C103.409 28.38 104.289 28.28 104.916 28.28C105.543 28.28 105.943 28.2933 106.116 28.32C106.116 28.64 106.076 28.9933 105.996 29.38C105.916 29.7667 105.869 29.9533 105.856 29.94L105.876 34.26C105.876 35.2733 106.003 36.0133 106.256 36.48C106.509 36.9467 107.049 37.18 107.876 37.18ZM119.691 37.38C120.277 37.38 121.197 37.1 122.451 36.54C122.704 36.8867 122.837 37.1933 122.851 37.46C122.171 37.86 121.504 38.1733 120.851 38.4C120.197 38.6267 119.731 38.74 119.451 38.74C117.904 38.74 116.724 38.28 115.911 37.36C115.097 36.4267 114.691 35.1267 114.691 33.46C114.691 31.7933 115.084 30.4867 115.871 29.54C116.671 28.58 117.864 28.1 119.451 28.1C120.677 28.1 121.611 28.54 122.251 29.42C122.904 30.3 123.231 31.48 123.231 32.96C123.124 33.1467 123.037 33.2733 122.971 33.34L116.531 33.24C116.544 34.5867 116.777 35.6133 117.231 36.32C117.697 37.0267 118.517 37.38 119.691 37.38ZM121.411 32.1C121.411 31.22 121.251 30.54 120.931 30.06C120.611 29.5667 120.077 29.32 119.331 29.32C118.584 29.32 117.917 29.46 117.331 29.74C116.931 30.54 116.677 31.36 116.571 32.2C117.624 32.1867 119.237 32.1533 121.411 32.1ZM126.505 37.22C126.972 37.42 127.538 37.52 128.205 37.52C128.885 37.52 129.418 37.3933 129.805 37.14C130.192 36.8867 130.385 36.54 130.385 36.1C130.385 35.66 130.205 35.2933 129.845 35C129.485 34.7067 129.045 34.4467 128.525 34.22C128.005 33.9933 127.485 33.7533 126.965 33.5C126.445 33.2467 126.005 32.9133 125.645 32.5C125.285 32.0867 125.105 31.6067 125.105 31.06C125.105 30.14 125.412 29.42 126.025 28.9C126.638 28.3667 127.485 28.1 128.565 28.1C129.658 28.1 130.685 28.3467 131.645 28.84C131.658 28.9733 131.665 29.3333 131.665 29.92C131.665 30.4933 131.605 30.9867 131.485 31.4C131.165 31.5067 130.785 31.56 130.345 31.56L129.685 29.52C129.392 29.3733 128.992 29.3 128.485 29.3C127.992 29.3 127.598 29.4333 127.305 29.7C127.012 29.9533 126.865 30.28 126.865 30.68C126.865 31.0667 127.045 31.4067 127.405 31.7C127.778 31.9933 128.225 32.26 128.745 32.5C129.265 32.7267 129.785 32.9733 130.305 33.24C130.825 33.4933 131.265 33.8333 131.625 34.26C131.998 34.6733 132.185 35.1533 132.185 35.7C132.185 36.66 131.812 37.4133 131.065 37.96C130.332 38.4933 129.425 38.76 128.345 38.76C127.758 38.76 127.132 38.6667 126.465 38.48C125.798 38.28 125.238 38.0267 124.785 37.72C124.785 36.8267 124.865 36.0333 125.025 35.34C125.332 35.2867 125.745 35.26 126.265 35.26L126.505 37.22ZM135.368 37.26L135.208 29.72H133.668L133.608 29.02C133.741 28.9267 134.128 28.7533 134.768 28.5L136.408 25.94C136.675 25.9667 136.881 26.0333 137.028 26.14L137.008 28.34C138.008 28.34 138.828 28.4067 139.468 28.54C139.468 28.9 139.355 29.2933 139.128 29.72H136.968C136.941 31.32 136.915 33.7467 136.888 37C137.635 37.04 138.381 37.1733 139.128 37.4L139.108 38.1C138.921 38.22 138.441 38.36 137.668 38.52C136.908 38.68 136.281 38.76 135.788 38.76C135.721 38.6533 135.635 38.4267 135.528 38.08C135.421 37.72 135.368 37.4467 135.368 37.26ZM144.441 26.44C144.094 26.52 143.754 26.56 143.421 26.56C143.101 26.56 142.781 26.54 142.461 26.5C142.381 26.1267 142.341 25.7533 142.341 25.38C142.341 24.9933 142.354 24.7067 142.381 24.52C142.674 24.4533 142.981 24.42 143.301 24.42C143.634 24.42 143.988 24.4333 144.361 24.46C144.441 24.8067 144.481 25.1467 144.481 25.48C144.481 25.8 144.468 26.12 144.441 26.44ZM140.801 28.54C141.934 28.34 142.814 28.24 143.441 28.24C144.068 28.24 144.468 28.2533 144.641 28.28C144.641 28.6 144.601 28.9533 144.521 29.34C144.441 29.7267 144.394 29.9133 144.381 29.9L144.201 37.14L145.881 37.3C145.881 37.6733 145.768 38.0733 145.541 38.5H140.941L140.881 37.8C141.494 37.5867 142.094 37.4267 142.681 37.32C142.601 33.9867 142.534 31.4867 142.481 29.82C141.708 29.82 141.121 29.74 140.721 29.58L140.801 28.54ZM151.613 37.54C152.733 37.54 153.487 37.1933 153.873 36.5C154.273 35.7933 154.473 34.7933 154.473 33.5C154.473 31.4467 154.02 30.16 153.113 29.64C152.74 29.4267 152.213 29.32 151.533 29.32C150.867 29.32 150.233 29.46 149.633 29.74C149.1 30.7667 148.833 31.96 148.833 33.32C148.833 34.6267 149.007 35.6333 149.353 36.34C149.753 37.14 150.507 37.54 151.613 37.54ZM146.993 33.5C146.993 31.8067 147.38 30.4867 148.153 29.54C148.927 28.58 150.12 28.1 151.733 28.1C153.347 28.1 154.513 28.54 155.233 29.42C155.953 30.2867 156.313 31.5733 156.313 33.28C156.313 34.9867 155.927 36.3267 155.153 37.3C154.393 38.2733 153.233 38.76 151.673 38.76C150.113 38.76 148.94 38.3067 148.153 37.4C147.38 36.4933 146.993 35.1933 146.993 33.5ZM163.995 28.1C165.275 28.1 166.202 28.42 166.775 29.06C167.348 29.6867 167.635 30.6467 167.635 31.94C167.635 32.3133 167.582 34.0467 167.475 37.14L169.155 37.3C169.155 37.6733 169.042 38.0733 168.815 38.5H164.215L164.155 37.8C164.768 37.5867 165.368 37.4267 165.955 37.32C165.875 33.8267 165.802 31.8867 165.735 31.5C165.682 31.1 165.588 30.7533 165.455 30.46C165.322 30.1667 165.122 29.96 164.855 29.84C164.588 29.72 164.235 29.66 163.795 29.66C162.915 29.66 162.062 29.8733 161.235 30.3C161.155 33.34 161.102 35.62 161.075 37.14L162.755 37.3C162.755 37.6733 162.642 38.0733 162.415 38.5H157.815L157.755 37.8C158.368 37.5867 158.968 37.4267 159.555 37.32C159.475 33.9333 159.408 31.4267 159.355 29.8C158.622 29.76 158.035 29.68 157.595 29.56L157.675 28.52C158.395 28.32 159.442 28.22 160.815 28.22C160.975 28.46 161.095 28.8067 161.175 29.26C161.748 28.9533 162.322 28.6867 162.895 28.46C163.482 28.22 163.848 28.1 163.995 28.1ZM171.739 37.22C172.206 37.42 172.773 37.52 173.439 37.52C174.119 37.52 174.653 37.3933 175.039 37.14C175.426 36.8867 175.619 36.54 175.619 36.1C175.619 35.66 175.439 35.2933 175.079 35C174.719 34.7067 174.279 34.4467 173.759 34.22C173.239 33.9933 172.719 33.7533 172.199 33.5C171.679 33.2467 171.239 32.9133 170.879 32.5C170.519 32.0867 170.339 31.6067 170.339 31.06C170.339 30.14 170.646 29.42 171.259 28.9C171.873 28.3667 172.719 28.1 173.799 28.1C174.893 28.1 175.919 28.3467 176.879 28.84C176.893 28.9733 176.899 29.3333 176.899 29.92C176.899 30.4933 176.839 30.9867 176.719 31.4C176.399 31.5067 176.019 31.56 175.579 31.56L174.919 29.52C174.626 29.3733 174.226 29.3 173.719 29.3C173.226 29.3 172.833 29.4333 172.539 29.7C172.246 29.9533 172.099 30.28 172.099 30.68C172.099 31.0667 172.279 31.4067 172.639 31.7C173.013 31.9933 173.459 32.26 173.979 32.5C174.499 32.7267 175.019 32.9733 175.539 33.24C176.059 33.4933 176.499 33.8333 176.859 34.26C177.233 34.6733 177.419 35.1533 177.419 35.7C177.419 36.66 177.046 37.4133 176.299 37.96C175.566 38.4933 174.659 38.76 173.579 38.76C172.993 38.76 172.366 38.6667 171.699 38.48C171.033 38.28 170.473 38.0267 170.019 37.72C170.019 36.8267 170.099 36.0333 170.259 35.34C170.566 35.2867 170.979 35.26 171.499 35.26L171.739 37.22ZM190.998 26.76L190.678 26.74H190.598L189.978 24.78C189.684 24.7267 189.424 24.7 189.198 24.7C188.544 24.7 188.084 24.9533 187.818 25.46C187.564 25.9667 187.438 26.8533 187.438 28.12V28.36H187.738C188.658 28.36 189.364 28.4133 189.858 28.52C189.871 28.52 189.898 28.5267 189.938 28.54C189.924 28.9267 189.811 29.32 189.598 29.72H187.318V37.14H187.618C188.138 37.14 188.598 37.1667 188.998 37.22C189.398 37.2733 189.611 37.3133 189.638 37.34C189.638 37.6867 189.524 38.0733 189.298 38.5H184.058L183.998 37.8C184.611 37.5867 185.171 37.4267 185.678 37.32V29.72H184.138L184.078 29.02C184.558 28.8333 185.091 28.6867 185.678 28.58V27.76C185.678 26.2533 185.958 25.1533 186.518 24.46C186.744 24.1933 187.064 23.9733 187.478 23.8C187.891 23.6133 188.371 23.52 188.918 23.52C189.984 23.52 190.998 23.7533 191.958 24.22C191.958 25.0467 191.878 25.8733 191.718 26.7C191.571 26.74 191.331 26.76 190.998 26.76ZM196.301 37.54C197.421 37.54 198.174 37.1933 198.561 36.5C198.961 35.7933 199.161 34.7933 199.161 33.5C199.161 31.4467 198.708 30.16 197.801 29.64C197.428 29.4267 196.901 29.32 196.221 29.32C195.554 29.32 194.921 29.46 194.321 29.74C193.788 30.7667 193.521 31.96 193.521 33.32C193.521 34.6267 193.694 35.6333 194.041 36.34C194.441 37.14 195.194 37.54 196.301 37.54ZM191.681 33.5C191.681 31.8067 192.068 30.4867 192.841 29.54C193.614 28.58 194.808 28.1 196.421 28.1C198.034 28.1 199.201 28.54 199.921 29.42C200.641 30.2867 201.001 31.5733 201.001 33.28C201.001 34.9867 200.614 36.3267 199.841 37.3C199.081 38.2733 197.921 38.76 196.361 38.76C194.801 38.76 193.628 38.3067 192.841 37.4C192.068 36.4933 191.681 35.1933 191.681 33.5ZM208.583 29.78C208.516 29.7133 208.369 29.68 208.143 29.68C207.916 29.68 207.576 29.76 207.123 29.92C206.683 30.08 206.283 30.2667 205.923 30.48C205.843 33.44 205.789 35.66 205.763 37.14L207.443 37.3C207.443 37.6733 207.329 38.0733 207.103 38.5H202.503L202.443 37.8C203.056 37.5867 203.656 37.4267 204.243 37.32C204.163 33.9333 204.096 31.4267 204.043 29.8C203.309 29.76 202.723 29.68 202.283 29.56L202.363 28.52C203.069 28.32 204.116 28.22 205.503 28.22C205.716 28.5533 205.849 28.98 205.903 29.5C207.436 28.5667 208.349 28.1 208.643 28.1C208.936 28.1 209.276 28.16 209.663 28.28C210.049 28.3867 210.336 28.5067 210.523 28.64C210.523 29.9733 210.396 31.06 210.143 31.9C209.956 31.9533 209.736 31.98 209.483 31.98C209.243 31.98 209.076 31.9733 208.983 31.96L208.583 29.78ZM218.282 37.22C218.749 37.42 219.316 37.52 219.982 37.52C220.662 37.52 221.196 37.3933 221.582 37.14C221.969 36.8867 222.162 36.54 222.162 36.1C222.162 35.66 221.982 35.2933 221.622 35C221.262 34.7067 220.822 34.4467 220.302 34.22C219.782 33.9933 219.262 33.7533 218.742 33.5C218.222 33.2467 217.782 32.9133 217.422 32.5C217.062 32.0867 216.882 31.6067 216.882 31.06C216.882 30.14 217.189 29.42 217.802 28.9C218.416 28.3667 219.262 28.1 220.342 28.1C221.436 28.1 222.462 28.3467 223.422 28.84C223.436 28.9733 223.442 29.3333 223.442 29.92C223.442 30.4933 223.382 30.9867 223.262 31.4C222.942 31.5067 222.562 31.56 222.122 31.56L221.462 29.52C221.169 29.3733 220.769 29.3 220.262 29.3C219.769 29.3 219.376 29.4333 219.082 29.7C218.789 29.9533 218.642 30.28 218.642 30.68C218.642 31.0667 218.822 31.4067 219.182 31.7C219.556 31.9933 220.002 32.26 220.522 32.5C221.042 32.7267 221.562 32.9733 222.082 33.24C222.602 33.4933 223.042 33.8333 223.402 34.26C223.776 34.6733 223.962 35.1533 223.962 35.7C223.962 36.66 223.589 37.4133 222.842 37.96C222.109 38.4933 221.202 38.76 220.122 38.76C219.536 38.76 218.909 38.6667 218.242 38.48C217.576 38.28 217.016 38.0267 216.562 37.72C216.562 36.8267 216.642 36.0333 216.802 35.34C217.109 35.2867 217.522 35.26 218.042 35.26L218.282 37.22ZM227.145 37.26L226.985 29.72H225.445L225.385 29.02C225.519 28.9267 225.905 28.7533 226.545 28.5L228.185 25.94C228.452 25.9667 228.659 26.0333 228.805 26.14L228.785 28.34C229.785 28.34 230.605 28.4067 231.245 28.54C231.245 28.9 231.132 29.2933 230.905 29.72H228.745C228.719 31.32 228.692 33.7467 228.665 37C229.412 37.04 230.159 37.1733 230.905 37.4L230.885 38.1C230.699 38.22 230.219 38.36 229.445 38.52C228.685 38.68 228.059 38.76 227.565 38.76C227.499 38.6533 227.412 38.4267 227.305 38.08C227.199 37.72 227.145 37.4467 227.145 37.26ZM237.778 37.18C238.165 37.18 238.598 37.1 239.078 36.94C239.558 36.7667 239.952 36.56 240.258 36.32C240.205 33.48 240.158 31.3267 240.118 29.86C239.292 29.86 238.678 29.78 238.278 29.62L238.358 28.58C239.492 28.38 240.378 28.28 241.018 28.28C241.672 28.28 242.085 28.2933 242.258 28.32C242.258 28.56 242.218 28.88 242.138 29.28C242.072 29.68 242.025 29.9 241.998 29.94L241.758 37.08C242.465 37.12 243.038 37.2 243.478 37.32L243.438 38.34C242.852 38.5267 242.285 38.62 241.738 38.62C241.192 38.62 240.858 38.6133 240.738 38.6C240.485 38.0933 240.338 37.6267 240.298 37.2C239.645 37.6933 239.038 38.0733 238.478 38.34C237.932 38.6067 237.572 38.74 237.398 38.74C236.225 38.74 235.372 38.4267 234.838 37.8C234.318 37.16 234.058 36.2267 234.058 35C234.058 34.9867 234.118 33.28 234.238 29.88C233.465 29.88 232.752 29.7933 232.098 29.62L232.178 28.58C233.312 28.38 234.192 28.28 234.818 28.28C235.445 28.28 235.845 28.2933 236.018 28.32C236.018 28.64 235.978 28.9933 235.898 29.38C235.818 29.7667 235.772 29.9533 235.758 29.94L235.778 34.26C235.778 35.2733 235.905 36.0133 236.158 36.48C236.412 36.9467 236.952 37.18 237.778 37.18ZM251.393 29.24L251.333 25.24C250.6 25.2 250.013 25.12 249.573 25L249.653 23.96C250.333 23.76 251.32 23.66 252.613 23.66C253.026 23.66 253.32 23.6733 253.493 23.7C253.493 23.94 253.453 24.26 253.373 24.66C253.306 25.0467 253.26 25.26 253.233 25.3L253.053 37.12C253.6 37.1467 254.18 37.24 254.793 37.4L254.753 38.1C253.833 38.5267 253.02 38.74 252.313 38.74C252.166 38.74 252.053 38.7333 251.973 38.72C251.866 38.52 251.733 38.06 251.573 37.34C250.04 38.2067 248.966 38.6733 248.353 38.74C247.073 38.74 246.113 38.2533 245.473 37.28C244.833 36.3067 244.513 35.06 244.513 33.54C244.513 32.0067 244.833 30.72 245.473 29.68C246.126 28.6267 247.086 28.1 248.353 28.1C249.34 28.1 250.353 28.48 251.393 29.24ZM248.693 29.46C247.133 29.46 246.353 30.74 246.353 33.3C246.353 34.3 246.513 35.1667 246.833 35.9C246.993 36.3 247.226 36.62 247.533 36.86C247.853 37.1 248.22 37.22 248.633 37.22C249.046 37.22 249.526 37.1267 250.073 36.94C250.633 36.7533 251.113 36.54 251.513 36.3L251.393 30.6C251.033 30.2933 250.593 30.0267 250.073 29.8C249.553 29.5733 249.093 29.46 248.693 29.46ZM260.902 37.38C261.488 37.38 262.408 37.1 263.662 36.54C263.915 36.8867 264.048 37.1933 264.062 37.46C263.382 37.86 262.715 38.1733 262.062 38.4C261.408 38.6267 260.942 38.74 260.662 38.74C259.115 38.74 257.935 38.28 257.122 37.36C256.308 36.4267 255.902 35.1267 255.902 33.46C255.902 31.7933 256.295 30.4867 257.082 29.54C257.882 28.58 259.075 28.1 260.662 28.1C261.888 28.1 262.822 28.54 263.462 29.42C264.115 30.3 264.442 31.48 264.442 32.96C264.335 33.1467 264.248 33.2733 264.182 33.34L257.742 33.24C257.755 34.5867 257.988 35.6133 258.442 36.32C258.908 37.0267 259.728 37.38 260.902 37.38ZM262.622 32.1C262.622 31.22 262.462 30.54 262.142 30.06C261.822 29.5667 261.288 29.32 260.542 29.32C259.795 29.32 259.128 29.46 258.542 29.74C258.142 30.54 257.888 31.36 257.782 32.2C258.835 32.1867 260.448 32.1533 262.622 32.1ZM272.296 28.1C273.576 28.1 274.503 28.42 275.076 29.06C275.649 29.6867 275.936 30.6467 275.936 31.94C275.936 32.3133 275.883 34.0467 275.776 37.14L277.456 37.3C277.456 37.6733 277.343 38.0733 277.116 38.5H272.516L272.456 37.8C273.069 37.5867 273.669 37.4267 274.256 37.32C274.176 33.8267 274.103 31.8867 274.036 31.5C273.983 31.1 273.889 30.7533 273.756 30.46C273.623 30.1667 273.423 29.96 273.156 29.84C272.889 29.72 272.536 29.66 272.096 29.66C271.216 29.66 270.363 29.8733 269.536 30.3C269.456 33.34 269.403 35.62 269.376 37.14L271.056 37.3C271.056 37.6733 270.943 38.0733 270.716 38.5H266.116L266.056 37.8C266.669 37.5867 267.269 37.4267 267.856 37.32C267.776 33.9333 267.709 31.4267 267.656 29.8C266.923 29.76 266.336 29.68 265.896 29.56L265.976 28.52C266.696 28.32 267.743 28.22 269.116 28.22C269.276 28.46 269.396 28.8067 269.476 29.26C270.049 28.9533 270.623 28.6867 271.196 28.46C271.783 28.22 272.149 28.1 272.296 28.1ZM279.86 37.26L279.7 29.72H278.16L278.1 29.02C278.233 28.9267 278.62 28.7533 279.26 28.5L280.9 25.94C281.167 25.9667 281.373 26.0333 281.52 26.14L281.5 28.34C282.5 28.34 283.32 28.4067 283.96 28.54C283.96 28.9 283.847 29.2933 283.62 29.72H281.46C281.433 31.32 281.407 33.7467 281.38 37C282.127 37.04 282.873 37.1733 283.62 37.4L283.6 38.1C283.413 38.22 282.933 38.36 282.16 38.52C281.4 38.68 280.773 38.76 280.28 38.76C280.213 38.6533 280.127 38.4267 280.02 38.08C279.913 37.72 279.86 37.4467 279.86 37.26Z" fill="white"/>
<path d="M312.05 23.5503L314.172 25.6715M317 21.5V24.5M321.95 23.5503L319.828 25.6715M324 28.5H321M321.95 33.4497L319.828 31.3285M317 35.5V32.5M312.05 33.4497L314.172 31.3285M310 28.5H313" stroke="white" stroke-width="2" stroke-linecap="round" stroke-linejoin="round"/>
<path d="M316.793 28.7072L304.772 40.728" stroke="white" stroke-width="2" stroke-linecap="round" stroke-linejoin="round"/>
</svg>
